<svg width="203" height="319" viewBox="0 0 203 319" fill="none" xmlns="http://www.w3.org/2000/svg">
<path d="M65 319H138C173.899 319 203 289.899 203 254V207C197.88 207 192.76 205.68 188.095 203.039C181.54 199.33 173.709 199.33 167.155 203.039C157.824 208.32 146.676 208.32 137.344 203.039C130.79 199.33 122.959 199.33 116.405 203.039C107.074 208.32 95.9256 208.32 86.5945 203.039C80.0401 199.33 72.2094 199.33 65.655 203.039C56.3238 208.32 45.1756 208.32 35.8445 203.039C29.2901 199.33 21.4594 199.33 14.905 203.039C10.2395 205.68 5.11975 207 0 207L1.7926e-06 254C1.7926e-06 289.899 29.1015 319 65 319Z" fill="#182E1B"/>
<path d="M167.155 203.039C173.709 199.33 181.54 199.33 188.095 203.039C192.76 205.68 197.88 207 203 207V196.743C199.404 196.743 195.807 195.815 192.53 193.961C183.199 188.68 172.051 188.68 162.72 193.961C156.165 197.67 148.334 197.67 141.78 193.961C132.449 188.68 121.301 188.68 111.97 193.961C105.415 197.67 97.5843 197.67 91.03 193.961C81.6988 188.68 70.5506 188.68 61.2195 193.961C54.6651 197.67 46.8344 197.67 40.28 193.961C30.9488 188.68 19.8006 188.68 10.4695 193.961C7.19235 195.815 3.59618 196.742 0 196.743V207C5.11975 207 10.2395 205.68 14.905 203.039C21.4594 199.33 29.2901 199.33 35.8445 203.039C45.1756 208.32 56.3238 208.32 65.655 203.039C72.2094 199.33 80.0401 199.33 86.5945 203.039C95.9256 208.32 107.074 208.32 116.405 203.039C122.959 199.33 130.79 199.33 137.344 203.039C146.676 208.32 157.824 208.32 167.155 203.039Z" fill="#E8D424"/>
<path d="M48.2118 77.2877C40.6578 81.9867 27.1082 85.9155 17.8429 88.2346C16.6711 88.5279 16.8976 90.4916 18.1055 90.4916H24.1645C24.1645 90.4916 63.1895 89.3786 69.5825 90.4916C75.9754 91.6046 70.8611 99 70.8611 99H84.7429L84.3776 97.6631L77.0713 95.8718C77.0713 95.8718 79.4459 94.3045 79.8112 92.9611C79.8751 92.7261 79.8904 92.4431 79.9062 92.1529C79.9805 90.7841 80.0635 89.2541 85.2909 91.835C94.1299 96.1992 107.04 94.5107 117.016 93.2059C117.657 93.1222 118.285 93.04 118.9 92.9611C129.283 91.6277 135.77 91.1568 138.444 91.835C142.681 92.9098 144.35 97.0595 144.654 99H155.979L155.613 97.2153L147.759 95.6479L147.029 90.4916L144.289 86.9091H192.002C192.183 86.3189 192.775 85.4099 193.386 84.4721C194.421 82.8834 195.509 81.2123 194.742 80.8701C194.179 80.6194 192.826 80.4335 190.983 80.1802C187.6 79.7153 182.566 79.0235 177.734 77.2877C176.444 76.8239 173.303 74.2053 171.024 72.3045C169.877 71.3482 168.948 70.5735 168.582 70.3465C166.063 68.7831 164.481 68.5828 163.044 68.4007C161.46 68.2 160.05 68.0215 157.751 66.0631C155.917 64.5005 152.094 64.8097 147.249 65.2014C144.571 65.4179 141.582 65.6596 138.444 65.6243C135.957 65.5963 133.142 64.8795 130.482 64.2021C128.057 63.5846 125.761 63 123.96 63C121.479 63 114.942 63.8843 114.942 63.8843C114.942 63.8843 108.198 63.4303 104.567 63.8843C100.936 64.3382 93.4784 65.6243 93.4784 65.6243C93.4784 65.6243 83.8671 65.0841 79.5747 66.0631C77.5515 66.5245 75.7321 66.927 74.0716 67.2943C74.0695 67.2948 74.0675 67.2952 74.0654 67.2957L74.064 67.296C62.8381 69.7793 58.8711 70.6569 48.2118 77.2877Z" fill="#263A12"/>
<path fill-rule="evenodd" clip-rule="evenodd" d="M138 0H65C29.1015 0 1.7926e-06 29.1015 1.7926e-06 65L0 196.743C3.59618 196.742 7.19235 195.815 10.4695 193.961C19.8006 188.68 30.9488 188.68 40.28 193.961C46.8344 197.67 54.6651 197.67 61.2195 193.961C70.5506 188.68 81.6988 188.68 91.03 193.961C97.5843 197.67 105.415 197.67 111.97 193.961C121.301 188.68 132.449 188.68 141.78 193.961C148.334 197.67 156.165 197.67 162.72 193.961C172.051 188.68 183.199 188.68 192.53 193.961C195.807 195.815 199.404 196.743 203 196.743V65C203 29.1015 173.899 0 138 0ZM17.8429 88.2346C27.1082 85.9155 40.6578 81.9867 48.2118 77.2877C58.8711 70.6569 62.8381 69.7793 74.064 67.296L74.0654 67.2957L74.0716 67.2943C75.7321 66.927 77.5515 66.5245 79.5747 66.0631C83.8671 65.0841 93.4784 65.6243 93.4784 65.6243C93.4784 65.6243 100.936 64.3382 104.567 63.8843C108.198 63.4303 114.942 63.8843 114.942 63.8843C114.942 63.8843 121.479 63 123.96 63C125.761 63 128.057 63.5846 130.482 64.2021C133.142 64.8795 135.957 65.5963 138.444 65.6243C141.582 65.6596 144.571 65.4179 147.249 65.2014C152.094 64.8097 155.917 64.5005 157.751 66.0631C160.05 68.0215 161.46 68.2 163.044 68.4007C164.481 68.5828 166.063 68.7831 168.582 70.3465C168.948 70.5735 169.877 71.3482 171.024 72.3045C173.303 74.2053 176.444 76.8239 177.734 77.2877C182.566 79.0235 187.6 79.7153 190.983 80.1802C192.826 80.4335 194.179 80.6194 194.742 80.8701C195.509 81.2123 194.421 82.8834 193.386 84.4721C192.775 85.4099 192.183 86.3189 192.002 86.9091H144.289L147.029 90.4916L147.759 95.6479L155.613 97.2153L155.979 99H144.654C144.35 97.0595 142.681 92.9098 138.444 91.835C135.77 91.1568 129.283 91.6277 118.9 92.9611C118.285 93.04 117.657 93.1222 117.016 93.2059C107.04 94.5107 94.1299 96.1992 85.2909 91.835C80.0635 89.2541 79.9805 90.7841 79.9062 92.1529C79.8904 92.4431 79.8751 92.7261 79.8112 92.9611C79.4459 94.3045 77.0713 95.8718 77.0713 95.8718L84.3776 97.6631L84.7429 99H70.8611C70.8611 99 75.9754 91.6046 69.5825 90.4916C63.1895 89.3786 24.1645 90.4916 24.1645 90.4916H18.1055C16.8976 90.4916 16.6711 88.5279 17.8429 88.2346Z" fill="#357934"/>
</svg>
