<svg width="506" height="590" viewBox="0 0 506 590" fill="none" xmlns="http://www.w3.org/2000/svg">
<path d="M455.206 183.665C455.206 183.665 394.574 184.631 351.814 195.152C309.054 205.673 268.943 210.936 236.807 193.963C230.489 200.417 224.3 206.973 218.276 213.621C242.316 221.188 279.141 223.426 317.944 217.238C386.059 206.377 440.669 211.314 440.669 211.314C440.669 211.314 369.532 213.289 317.944 224.644C278.739 233.274 246.715 235.138 208.76 224.36C203.186 230.797 197.779 237.313 192.571 243.9C227.008 264.336 285.272 246.774 321.951 242.912C373.539 237.481 423.36 240.937 423.36 240.937C423.36 240.937 377.545 240.443 317.944 250.318C281.092 256.424 218.259 276.494 182.379 257.23C175.423 266.654 168.902 276.207 162.905 285.866C189.042 299.784 246.132 281.256 272.368 276.979C335.975 266.611 402.587 272.782 402.587 272.782C402.587 272.782 351 269.573 295.907 280.929C259.6 288.412 192.899 314.294 156.695 296.234C152.267 303.913 148.183 311.651 144.487 319.439C195.369 328.854 247.759 313.122 297.91 306.603C343.488 300.678 377.744 306.603 377.744 306.603C377.744 306.603 334.473 303.146 272.368 319.933C232.306 330.761 179.856 343.471 138.017 333.757C134.564 341.666 131.37 349.402 128.417 356.962C159.199 373.78 225.028 346.944 256.841 342.644C318.946 334.251 349.288 340.669 349.288 340.669C349.288 340.669 304.922 340.669 264.855 348.569C231.562 355.133 154.38 390.855 122.857 371.774C120.309 378.851 117.976 385.763 115.843 392.51C146.548 405.904 195.828 385.12 226.289 379.18C271.867 370.293 314.438 376.737 314.438 376.737C314.438 376.737 273.369 375.724 233.802 387.08C202.768 395.986 142.401 425.85 110.57 410.285C107.668 420.764 105.258 430.805 103.276 440.402C128.984 444.919 156.38 430.822 181.213 426.084C212.266 420.159 269.863 417.995 269.863 417.995C269.863 417.995 227.291 421.64 189.227 430.527C163.184 436.607 127.519 463.704 100.24 456.695C98.6553 466.243 97.5022 475.296 96.705 483.849C128.462 492.602 153.882 461.882 184.218 459.163C206.256 457.188 225.569 460.151 225.569 460.151C225.569 460.151 204.753 458.669 181.213 465.582C153.601 473.69 126.586 510.701 95.5052 501.623C93.1172 559.72 107.338 590 107.338 590L89.3747 590C82.3627 578.151 79.5576 565.314 75.846 550.996C72.1343 536.678 72.0725 532.606 70.6532 526.31C59.0394 522.308 31.7522 501.992 15.5136 452.745C15.5136 452.745 24.9489 453.963 36.4683 465.582C40.2612 469.407 43.4263 474.311 46.6212 479.26C51.9729 487.551 57.4084 495.972 66.0183 499.674C68.9 500.913 72.1372 501.623 75.846 501.623L74.6899 482.368C60.4073 490.719 49.267 467.451 39.4734 461.138C26.4514 452.745 15.5136 452.745 15.5136 452.745C9.85835 435.594 4.45583 412.853 2.23895 393.498C2.23895 393.498 22.4446 405.841 35.4666 422.628L35.7672 423.015C44.2099 433.902 59.2063 453.238 74.9101 453.238L76.147 436.452C63.0011 439.883 44.2078 423.027 35.4666 415.715C18.9387 401.891 2.23895 393.498 2.23895 393.498C0.0498783 372.79 -0.289022 360.976 0.189548 337.213C0.189548 337.213 10.9251 345.607 25.4497 364.862L25.8041 365.332C36.5389 379.566 59.7045 410.285 79.7745 410.285L84.3251 389.054C67.8676 395.681 38.3016 370.429 28.4548 360.418C12.4277 344.126 0.189548 337.213 0.189548 337.213C1.22353 322.132 3.64755 303.88 6.20795 291.297C6.20795 291.297 23.9471 306.603 39.9742 327.339C51.0751 341.702 71.4658 363.381 91.8992 363.381L96.9847 349.556C83.7793 355.55 56.7611 335.225 48.9895 327.339C28.4548 306.501 6.20795 291.297 6.20795 291.297C8.56632 279.707 12.2296 265.895 16.0581 254.761C16.0581 254.761 24.9488 261.674 42.9793 283.891C50.5869 293.265 88.5564 327.339 107.088 326.66L114.722 312.033C102.58 315.49 57.986 293.52 48.9895 283.891C31.4599 265.13 16.0581 254.761 16.0581 254.761C21.5598 238.763 29.2389 222.977 37.0205 208.351C37.0205 208.351 50.9929 221.188 69.5242 247.849C83.4778 267.924 105.815 284.031 131.128 285.553L137.942 275.992C111.906 272.106 86.0771 262.031 69.5242 240.937C48.9895 214.77 37.0205 208.351 37.0205 208.351C47.3499 188.938 56.7539 179.072 69.5242 164.889C69.5242 164.889 84.0488 184.159 95.5683 205.389C109.366 230.818 132.773 243.775 160.93 247.356L173.326 233.531C145.573 233.531 121.682 224.465 104.083 202.427C85.5514 179.222 69.5242 164.889 69.5242 164.889C84.0146 150.146 93.5021 142.058 110.222 127.606C110.222 127.606 119.108 133.799 135.636 166.879C148 191.625 166.607 203.598 189.957 216.251L199.744 206.633C175.5 198.031 152.476 182.775 138.641 160.954C118.607 129.356 110.222 127.606 110.222 127.606C125.792 116.309 134.543 110.319 149.971 100.226C149.971 100.226 165.186 118.494 177.206 140.218C187.754 159.28 202.192 176.76 222.942 185.146L232.299 176.921C211.529 167.153 195.878 157.184 182.215 138.243C166.188 116.025 149.971 100.226 149.971 100.226C167.389 89.9991 177.107 84.6562 194.319 76.0334C194.319 76.0334 204.753 78.502 219.277 109.607C228.111 128.524 239.161 144.336 255.555 157.385L264.186 150.424C246.889 137.997 233.603 125.466 222.783 106.644C205.755 77.0209 194.319 76.0334 194.319 76.0334C209.937 68.4022 218.773 64.4548 234.804 58.0361C234.804 58.0361 241.315 56.8553 253.836 76.5271C265.626 95.051 270.453 120.931 294.905 126.731L302.239 121.298C279.218 116.311 270.411 91.9555 257.342 75.046C242.316 55.6056 234.804 58.0361 234.804 58.0361C255.045 50.1689 266.077 46.1075 284.888 39.8224C284.888 39.8224 292.902 44.9288 300.915 62.2092C307.682 76.7995 314.272 93.4744 328.462 102.486L334.171 98.508C321.846 89.4982 312.503 76.9839 305.423 63.6903C294.906 43.9414 284.888 39.8224 284.888 39.8224C302.545 34.1977 312.773 31.2149 331.467 26.13C331.467 26.13 318.946 38.5104 341.484 49.8661C352.345 55.3383 364.757 63.7042 367.027 76.3561L375.859 70.6025C371.001 57.8696 359.06 52.1597 346.993 46.9037C325.457 37.523 331.467 26.13 331.467 26.13C351.55 20.6027 363.382 17.9161 383.555 14.0012C383.555 14.0012 382.554 22.2175 391.569 31.1045C397.457 36.909 402.912 44.8101 403.141 53.3221L411.395 48.2355C408.089 40.6384 403.649 34.82 396.577 30.1171C385.441 22.7112 383.555 14.0012 383.555 14.0012C402.146 10.1126 412.494 8.18518 430.635 5.79991C437.647 12.1796 434.358 25.1671 442.154 29.8356L451.034 24.6861C441.153 20.7363 439.149 10.7371 430.635 5.79991C458.532 1.75487 481.254 1.20752e-06 495.745 0C481.176 7.98183 466.929 16.6243 452.867 25.4364C466.696 27.1548 479.956 18.7614 506 22.7112C484.464 21.2301 464.192 34.5606 444.294 30.8092C435.332 36.473 425.473 42.8456 414.941 49.8661C427.519 49.8661 439.222 52.849 452.171 51.3472C469.2 49.3723 504.069 44.4351 504.069 44.4351C504.069 44.4351 487.231 48.3849 462.689 54.3096C442.594 59.1609 425.812 55.7907 406.124 55.7907C397.604 61.5614 388.709 67.7189 379.548 74.2338C395.437 78.528 413.025 76.9903 429.132 75.046C453.674 72.0836 498.75 70.1159 498.75 70.1159C498.75 70.1159 455.176 75.5397 426.628 79.9832C409.234 82.6906 388.438 84.7341 371.034 80.3381C361.554 87.1897 351.833 94.4023 341.985 101.945C368.556 104.659 395.01 104.175 421.62 101.213C452.672 97.7573 490.509 98.508 490.509 98.508C490.509 98.508 461.186 99.7322 426.628 104.669C400.163 108.45 360.262 119.003 334.472 107.745C327.129 113.459 319.732 119.35 312.327 125.406C338.59 135.333 369.297 131.406 396.577 128.862C433.64 125.406 480.095 127.606 480.095 127.606C480.095 127.606 440.151 126.887 394.574 132.812C372.084 135.735 324.099 147.748 303.368 132.812C294.091 140.563 284.832 148.565 275.681 156.793C311.25 166.879 338.796 163.211 376.861 155.523C414.925 147.835 469.051 154.204 469.051 154.204C469.051 154.204 412.738 150.092 374.357 160.954C335.975 171.816 303.363 172.842 267.86 163.906C260.406 170.763 253.044 177.767 245.822 184.905C278.874 201.08 322.189 193.751 357.01 188.602C407.095 181.197 455.206 183.665 455.206 183.665Z" fill="#101F0E"/>
</svg>
