<svg width="203" height="319" viewBox="0 0 203 319" fill="none" xmlns="http://www.w3.org/2000/svg">
<path d="M167.155 203.039C173.709 199.33 181.54 199.33 188.095 203.039C192.76 205.68 197.88 207 203 207V196.743C199.404 196.743 195.807 195.815 192.53 193.961C183.199 188.68 172.051 188.68 162.72 193.961C156.165 197.67 148.334 197.67 141.78 193.961C132.449 188.68 121.301 188.68 111.97 193.961C105.415 197.67 97.5843 197.67 91.03 193.961C81.6988 188.68 70.5506 188.68 61.2195 193.961C54.6651 197.67 46.8344 197.67 40.28 193.961C30.9488 188.68 19.8006 188.68 10.4694 193.961C7.19235 195.815 3.59618 196.742 -1.79262e-06 196.743V207C5.11975 207 10.2395 205.68 14.905 203.039C21.4594 199.33 29.2901 199.33 35.8445 203.039C45.1756 208.32 56.3238 208.32 65.655 203.039C72.2094 199.33 80.0401 199.33 86.5945 203.039C95.9256 208.32 107.074 208.32 116.405 203.039C122.959 199.33 130.79 199.33 137.344 203.039C146.676 208.32 157.824 208.32 167.155 203.039Z" fill="white"/>
<path d="M64.999 319H137.999C173.898 319 202.999 289.899 202.999 254L203 207C197.88 207 192.76 205.68 188.095 203.039C181.54 199.33 173.709 199.33 167.155 203.039C157.824 208.32 146.676 208.32 137.344 203.039C130.79 199.33 122.959 199.33 116.405 203.039C107.074 208.32 95.9256 208.32 86.5945 203.039C80.0401 199.33 72.2094 199.33 65.655 203.039C56.3238 208.32 45.1756 208.32 35.8445 203.039C29.2901 199.33 21.4594 199.33 14.905 203.039C10.2395 205.68 5.11975 207 -1.79262e-06 207L-0.000976562 254C-0.000976562 289.899 29.1005 319 64.999 319Z" fill="#182E1B"/>
<path d="M125.256 88.0307C125.399 88.1872 125.537 88.3386 125.67 88.4851C127.811 90.8373 128.786 91.9082 130.475 91.9082C132.005 91.9082 133.945 90.1069 136.192 88.0223C136.58 87.6617 136.978 87.2926 137.384 86.9229C140.139 84.416 140.362 77.1243 139.692 73.9338C139.624 73.612 139.558 73.2805 139.49 72.941C138.885 69.9143 138.153 66.2497 135.238 63.1287L136.53 62.4953L141.2 64.8331L140.655 66.2704C140.035 66.3225 139.696 67.148 140.284 67.5104C140.872 67.8727 141.405 67.155 141.2 66.6138L141.984 65.3303L143.048 66.4647C142.796 67.2539 143.532 67.8067 144.138 67.406C144.743 67.0053 144.19 66.004 143.564 66.1386L142.867 64.8889L144.192 65.3303C144.327 65.794 145.315 66.1591 145.486 65.4307C145.656 64.7023 144.634 64.4617 144.322 64.8889L143.228 64.2753L143.873 63.6283C144.417 63.9 144.979 63.4072 144.809 62.9566C144.638 62.5059 143.661 62.5484 143.661 63.2117L142.455 63.9L135.938 58.8526C133.793 58.3507 129.398 59.2364 129.398 59.2364C128.374 58.7675 127.316 58.4005 126.169 58.1166C123.522 57.4616 120.402 57.2493 116.121 57.2493C113.129 57.2493 111.425 57.5086 109.956 57.7324C107.548 58.099 105.766 58.3702 99.9729 57.2492C93.0068 55.9015 86.1219 56.1834 78.1761 59.4198L78.9452 56.9688L84.443 54.9396L85.5093 55.4401C85.5093 55.9842 86.1513 56.7023 86.7606 56.2344C87.3699 55.7665 86.4698 55.0593 85.8575 55.179L85.0712 54.5702L86.5073 54.2137C86.7893 54.6913 87.9457 54.7464 87.9567 54.0305C87.9677 53.3146 86.8113 53.2375 86.4698 53.8379H85.0712L85.765 52.4005C86.4232 52.3413 86.8464 51.2732 86.1945 51.0459C85.5427 50.8186 84.929 51.4747 85.2474 52.1596L84.443 53.5592L83.8162 52.1596C84.2011 51.6186 83.7521 50.976 83.1989 51.1561C82.6457 51.3361 82.6372 52.0702 83.309 52.3125L83.5649 53.8853L75.9637 55.2752L74.4112 60.7619C72.847 61.5629 69.2387 63.7701 65.396 68.5863C61.5533 73.4025 56.66 84.1435 60.2511 95.9199C62.7552 104.131 71.2508 110.42 81.7508 110.42C92.2508 110.42 101.473 104.725 99.9729 93.4199C98.4729 82.1143 85.254 83.7081 85.2524 84.9199C85.252 85.2468 85.9957 85.3609 87.0974 85.53C90.0794 85.9876 95.684 86.8478 96.2508 93.4199C97.0271 102.42 89.2508 107.92 77.7526 105.42C66.2543 102.92 65.2492 91.0861 66.7508 86.1317C68.2525 81.1773 69.2524 79.2721 70.9066 77.6417V80.4198L74.1761 81.4198L73.8468 82.3539C73.1745 82.2098 72.3845 83.1703 73.1157 83.7094C73.8468 84.2485 74.5467 83.1998 74.2015 82.6039L74.8855 81.9198L75.2034 82.6774C74.6349 83.2782 74.8087 84.0721 75.5366 84.0819C76.2645 84.0917 76.4776 83.1017 75.6272 82.6774L75.7331 81.9198L76.7848 82.2799C76.7848 82.8117 77.9502 83.435 78.2896 82.8004C78.6291 82.1658 77.8031 81.6576 77.045 81.8047L76.2547 81.1693L77.3224 81.0225C77.4837 81.2992 78.6856 81.4426 78.6177 80.7638C78.5499 80.0849 77.5 80.2931 77.3224 80.5966H75.1165L72.6761 79.2721C72.6761 79.2721 75.5366 76.3095 75.9304 74.6421C76.3242 72.9746 75.2125 72.0515 75.2125 72.0515C75.6451 70.562 83.466 66.5287 93.1548 70.5C100.95 73.6952 102.938 73.6193 106.221 72.7206C107.018 72.5023 107.892 72.2631 108.944 72.0515L106.432 79.2721L109.955 83.0617L108.927 84.4279C108.001 84.1823 107.326 85.2641 108.001 85.8272C108.677 86.3903 109.658 85.686 109.404 84.7841L110.495 83.9655L110.814 85.0486C109.969 85.5628 110.176 86.7968 111.245 86.7858C112.313 86.7748 112.045 85.3651 111.456 85.0486V83.9655L113.129 85.0449C112.963 85.7727 114.076 86.5324 114.693 85.8272C115.31 85.1221 114.297 84.1084 113.514 84.504L111.984 83.2374L113.609 83.1194C113.941 83.61 114.969 83.6787 115.178 82.9405C115.387 82.2023 114.285 81.5632 113.47 82.3895H111.245L110.173 78.6871L113.968 72.0515C113.968 72.0515 122.222 71.1429 122.221 77.6417C122.221 84.1404 122.819 85.3617 125.256 88.0307Z" fill="#263A12"/>
<path fill-rule="evenodd" clip-rule="evenodd" d="M125.67 88.4851C127.811 90.8373 128.786 91.9082 130.475 91.9082C132.005 91.9082 133.945 90.1069 136.192 88.0223C136.58 87.6617 136.978 87.2926 137.384 86.9229C140.139 84.416 140.362 77.1243 139.692 73.9338C139.624 73.612 139.558 73.2805 139.49 72.941C138.885 69.9143 138.153 66.2497 135.238 63.1287L136.53 62.4953L141.2 64.8331L140.655 66.2704C140.035 66.3225 139.696 67.148 140.284 67.5104C140.872 67.8727 141.405 67.155 141.2 66.6138L141.984 65.3303L143.048 66.4647C142.796 67.2539 143.532 67.8067 144.138 67.406C144.743 67.0053 144.19 66.004 143.564 66.1386L142.867 64.8889L144.192 65.3303C144.327 65.794 145.315 66.1591 145.486 65.4307C145.656 64.7023 144.634 64.4617 144.322 64.8889L143.228 64.2753L143.873 63.6283C144.417 63.9 144.979 63.4072 144.809 62.9566C144.638 62.5059 143.661 62.5484 143.661 63.2117L142.455 63.9L135.938 58.8526C133.793 58.3507 129.398 59.2364 129.398 59.2364C128.374 58.7675 127.316 58.4005 126.169 58.1166C123.522 57.4616 120.402 57.2493 116.121 57.2493C113.129 57.2493 111.425 57.5086 109.956 57.7324C107.548 58.099 105.766 58.3702 99.9729 57.2492C93.0068 55.9015 86.1219 56.1834 78.1761 59.4198L78.9452 56.9688L84.443 54.9396L85.5093 55.4401C85.5093 55.9842 86.1513 56.7023 86.7606 56.2344C87.3699 55.7665 86.4698 55.0593 85.8575 55.179L85.0712 54.5702L86.5073 54.2137C86.7893 54.6913 87.9457 54.7464 87.9567 54.0305C87.9677 53.3146 86.8113 53.2375 86.4698 53.8379H85.0712L85.765 52.4005C86.4232 52.3413 86.8464 51.2732 86.1945 51.0459C85.5427 50.8186 84.929 51.4747 85.2474 52.1596L84.443 53.5592L83.8162 52.1596C84.2011 51.6186 83.7521 50.976 83.1989 51.1561C82.6457 51.3361 82.6372 52.0702 83.309 52.3125L83.5649 53.8853L75.9637 55.2752L74.4112 60.7619C72.847 61.5629 69.2387 63.7701 65.396 68.5863C61.5533 73.4025 56.66 84.1435 60.2511 95.9199C62.7552 104.131 71.2508 110.42 81.7508 110.42C92.2508 110.42 101.473 104.725 99.9729 93.4199C98.4729 82.1143 85.254 83.7081 85.2524 84.9199C85.252 85.2468 85.9957 85.3609 87.0974 85.53C90.0794 85.9876 95.684 86.8478 96.2508 93.4199C97.0271 102.42 89.2508 107.92 77.7526 105.42C66.2543 102.92 65.2492 91.0861 66.7508 86.1317C68.2525 81.1773 69.2524 79.2721 70.9066 77.6417V80.4198L74.1761 81.4198L73.8468 82.3539C73.1745 82.2098 72.3845 83.1703 73.1157 83.7094C73.8468 84.2485 74.5467 83.1998 74.2015 82.6039L74.8855 81.9198L75.2034 82.6774C74.6349 83.2782 74.8087 84.0721 75.5366 84.0819C76.2645 84.0917 76.4776 83.1017 75.6272 82.6774L75.7331 81.9198L76.7848 82.2799C76.7848 82.8117 77.9502 83.435 78.2896 82.8004C78.6291 82.1658 77.8031 81.6576 77.045 81.8047L76.2547 81.1693L77.3224 81.0225C77.4837 81.2992 78.6856 81.4426 78.6177 80.7638C78.5499 80.0849 77.5 80.2931 77.3224 80.5966H75.1165L72.6761 79.2721C72.6761 79.2721 75.5366 76.3095 75.9304 74.6421C76.3242 72.9746 75.2125 72.0515 75.2125 72.0515C75.6451 70.562 83.466 66.5287 93.1548 70.5C100.95 73.6952 102.938 73.6193 106.221 72.7206C107.018 72.5023 107.892 72.2631 108.944 72.0515L106.432 79.2721L109.955 83.0617L108.927 84.4279C108.001 84.1823 107.326 85.2641 108.001 85.8272C108.677 86.3903 109.658 85.686 109.404 84.7841L110.495 83.9655L110.814 85.0486C109.969 85.5628 110.176 86.7968 111.245 86.7858C112.313 86.7748 112.045 85.3651 111.456 85.0486V83.9655L113.129 85.0449C112.963 85.7727 114.076 86.5324 114.693 85.8272C115.31 85.1221 114.297 84.1084 113.514 84.504L111.984 83.2374L113.609 83.1194C113.941 83.61 114.969 83.6787 115.178 82.9405C115.387 82.2023 114.285 81.5632 113.47 82.3895H111.245L110.173 78.6871L113.968 72.0515C113.968 72.0515 122.222 71.1429 122.221 77.6417C122.221 84.1404 122.819 85.3617 125.256 88.0307C125.399 88.1872 125.537 88.3386 125.67 88.4851Z" fill="#263A12"/>
<path fill-rule="evenodd" clip-rule="evenodd" d="M137.999 0H64.999C29.1005 0 -0.000976562 29.1015 -0.000976562 65L-1.79262e-06 196.743C3.59618 196.742 7.19235 195.815 10.4694 193.961C19.8006 188.68 30.9488 188.68 40.28 193.961C46.8344 197.67 54.6651 197.67 61.2195 193.961C70.5506 188.68 81.6988 188.68 91.03 193.961C97.5843 197.67 105.415 197.67 111.97 193.961C121.301 188.68 132.449 188.68 141.78 193.961C148.334 197.67 156.165 197.67 162.72 193.961C172.051 188.68 183.199 188.68 192.53 193.961C195.807 195.815 199.404 196.743 203 196.743L202.999 65C202.999 29.1015 173.898 0 137.999 0ZM139.692 73.9338C140.362 77.1243 140.139 84.416 137.384 86.9229C136.978 87.2926 136.58 87.6617 136.192 88.0223C133.945 90.1069 132.005 91.9082 130.475 91.9082C128.786 91.9082 127.811 90.8373 125.67 88.4851C125.537 88.3386 125.399 88.1872 125.256 88.0307C122.819 85.3617 122.221 84.1404 122.221 77.6417C122.222 71.1429 113.968 72.0515 113.968 72.0515L110.173 78.6871L111.245 82.3895H113.47C114.285 81.5632 115.387 82.2023 115.178 82.9405C114.969 83.6787 113.941 83.61 113.609 83.1194L111.984 83.2374L113.514 84.504C114.297 84.1084 115.31 85.1221 114.693 85.8272C114.076 86.5324 112.963 85.7727 113.129 85.0449L111.456 83.9655V85.0486C112.045 85.3651 112.313 86.7748 111.245 86.7858C110.176 86.7968 109.969 85.5628 110.814 85.0486L110.495 83.9655L109.404 84.7841C109.658 85.686 108.677 86.3903 108.001 85.8272C107.326 85.2641 108.001 84.1823 108.927 84.4279L109.955 83.0617L106.432 79.2721L108.944 72.0515C107.892 72.2631 107.018 72.5023 106.221 72.7206C102.938 73.6193 100.95 73.6952 93.1548 70.5C83.466 66.5287 75.6451 70.562 75.2125 72.0515C75.2125 72.0515 76.3242 72.9746 75.9304 74.6421C75.5366 76.3095 72.6761 79.2721 72.6761 79.2721L75.1165 80.5966H77.3224C77.5 80.2931 78.5499 80.0849 78.6177 80.7638C78.6856 81.4426 77.4837 81.2992 77.3224 81.0225L76.2547 81.1693L77.045 81.8047C77.8031 81.6576 78.6291 82.1658 78.2896 82.8004C77.9502 83.435 76.7848 82.8117 76.7848 82.2799L75.7331 81.9198L75.6272 82.6774C76.4776 83.1017 76.2645 84.0917 75.5366 84.0819C74.8087 84.0721 74.6349 83.2782 75.2034 82.6774L74.8855 81.9198L74.2015 82.6039C74.5467 83.1998 73.8468 84.2485 73.1157 83.7094C72.3845 83.1703 73.1745 82.2098 73.8468 82.3539L74.1761 81.4198L70.9066 80.4198V77.6417C69.2524 79.2721 68.2525 81.1773 66.7508 86.1317C65.2492 91.0861 66.2543 102.92 77.7526 105.42C89.2508 107.92 97.0271 102.42 96.2508 93.4199C95.684 86.8478 90.0794 85.9876 87.0974 85.53C85.9957 85.3609 85.252 85.2468 85.2524 84.9199C85.254 83.7081 98.4729 82.1143 99.9729 93.4199C101.473 104.725 92.2508 110.42 81.7508 110.42C71.2508 110.42 62.7552 104.131 60.2511 95.9199C56.66 84.1435 61.5533 73.4025 65.396 68.5863C69.2387 63.7701 72.847 61.5629 74.4112 60.7619L75.9637 55.2752L83.5649 53.8853L83.309 52.3125C82.6372 52.0702 82.6457 51.3361 83.1989 51.1561C83.7521 50.976 84.2011 51.6186 83.8162 52.1596L84.443 53.5592L85.2474 52.1596C84.929 51.4747 85.5427 50.8186 86.1945 51.0459C86.8464 51.2732 86.4232 52.3413 85.765 52.4005L85.0712 53.8379H86.4698C86.8113 53.2375 87.9677 53.3146 87.9567 54.0305C87.9457 54.7464 86.7893 54.6913 86.5073 54.2137L85.0712 54.5702L85.8575 55.179C86.4698 55.0593 87.3699 55.7665 86.7606 56.2344C86.1513 56.7023 85.5093 55.9842 85.5093 55.4401L84.443 54.9396L78.9452 56.9688L78.1761 59.4198C86.1219 56.1834 93.0068 55.9015 99.9729 57.2492C105.766 58.3702 107.548 58.099 109.956 57.7324C111.425 57.5086 113.129 57.2493 116.121 57.2493C120.402 57.2493 123.522 57.4616 126.169 58.1166C127.316 58.4005 128.374 58.7675 129.398 59.2364C129.398 59.2364 133.793 58.3507 135.938 58.8526L142.455 63.9L143.661 63.2117C143.661 62.5484 144.638 62.5059 144.809 62.9566C144.979 63.4072 144.417 63.9 143.873 63.6283L143.228 64.2753L144.322 64.8889C144.634 64.4617 145.656 64.7023 145.486 65.4307C145.315 66.1591 144.327 65.794 144.192 65.3303L142.867 64.8889L143.564 66.1386C144.19 66.004 144.743 67.0053 144.138 67.406C143.532 67.8067 142.796 67.2539 143.048 66.4647L141.984 65.3303L141.2 66.6138C141.405 67.155 140.872 67.8727 140.284 67.5104C139.696 67.148 140.035 66.3225 140.655 66.2704L141.2 64.8331L136.53 62.4953L135.238 63.1287C138.153 66.2497 138.885 69.9143 139.49 72.941C139.558 73.2805 139.624 73.612 139.692 73.9338Z" fill="#357934"/>
</svg>
