<svg width="203" height="319" viewBox="0 0 203 319" fill="none" xmlns="http://www.w3.org/2000/svg">
<path d="M167.155 203.039C173.709 199.33 181.54 199.33 188.095 203.039C192.76 205.68 197.88 207 203 207V196.743C199.404 196.743 195.807 195.815 192.53 193.961C183.199 188.68 172.051 188.68 162.72 193.961C156.165 197.67 148.334 197.67 141.78 193.961C132.449 188.68 121.301 188.68 111.97 193.961C105.415 197.67 97.5843 197.67 91.03 193.961C81.6988 188.68 70.5506 188.68 61.2195 193.961C54.6651 197.67 46.8344 197.67 40.28 193.961C30.9488 188.68 19.8006 188.68 10.4695 193.961C7.19235 195.815 3.59618 196.742 0 196.743V207C5.11975 207 10.2395 205.68 14.905 203.039C21.4594 199.33 29.2901 199.33 35.8445 203.039C45.1756 208.32 56.3238 208.32 65.655 203.039C72.2094 199.33 80.0401 199.33 86.5945 203.039C95.9256 208.32 107.074 208.32 116.405 203.039C122.959 199.33 130.79 199.33 137.344 203.039C146.676 208.32 157.824 208.32 167.155 203.039Z" fill="#E8D424"/>
<path d="M65 319H138C173.899 319 203 289.899 203 254V207C197.88 207 192.76 205.68 188.095 203.039C181.54 199.33 173.709 199.33 167.155 203.039C157.824 208.32 146.676 208.32 137.344 203.039C130.79 199.33 122.959 199.33 116.405 203.039C107.074 208.32 95.9256 208.32 86.5945 203.039C80.0401 199.33 72.2094 199.33 65.655 203.039C56.3238 208.32 45.1756 208.32 35.8445 203.039C29.2901 199.33 21.4594 199.33 14.905 203.039C10.2395 205.68 5.11975 207 0 207L1.7926e-06 254C1.7926e-06 289.899 29.1015 319 65 319Z" fill="#182E1B"/>
<path d="M170.806 77.7604C170.642 77.4412 170.49 77.0862 170.336 76.7246C169.9 75.6999 169.441 74.6226 168.603 74.1597C168.058 73.8582 167.349 73.8819 166.549 73.9087C165.272 73.9514 163.762 74.0019 162.311 72.7508C161.511 72.0605 160.764 71.118 159.993 70.1434C158.49 68.2445 156.418 67.3192 154.131 66.8019C150.67 66.0192 146.58 67.5847 146.58 67.5847C146.58 67.5847 139.973 69.6198 138.242 63.984C136.512 58.3482 131.95 56 131.95 56C131.95 56 128.646 59.131 126.129 59.131H119.522C119.522 59.131 117.229 61.7923 114.488 61.9489C111.747 62.1054 109.139 61.4792 109.139 61.4792C109.139 61.4792 106.622 63.984 103.476 64.7668C100.33 65.5495 97.3408 63.984 97.3408 63.984C97.3408 63.984 95.1428 66.4888 90.4235 67.5847C87.263 68.3185 85.7232 67.9291 84.3894 67.5917C83.7315 67.4253 83.1236 67.2716 82.3961 67.2716C82.3961 67.2716 82.7108 69.1502 81.295 70.0895C79.8791 71.0288 77.5719 71.6028 73.272 72.4377C72.9504 72.5025 72.585 72.5723 72.1843 72.6489L72.1829 72.6492C67.4217 73.559 57.6981 75.417 57.6981 81.0479C57.6981 81.0479 57.6981 84.8051 63.6759 85.2748C69.6538 85.7444 76.6007 87.7887 76.8902 90.5974C77.0057 91.7182 76.3897 92.7229 75.2776 93.5719C70.7692 97.0135 58.1087 97.8952 52.9851 93.5719C52.4876 93.1521 52.0612 92.6833 51.7202 92.1629C51.4225 91.7087 51.1083 91.1792 50.7781 90.5974C50.4336 89.9906 50.0716 89.3265 49.6928 88.6317L49.6921 88.6304C48.3114 86.0978 46.7059 83.1527 44.9002 81.0479C42.2749 77.9878 38.3077 77.6417 36.2663 79.6833C34.2249 81.725 34.0405 84.1789 34.0405 87.1534C34.0405 90.1278 35.8316 93.5719 35.8316 93.5719C39.1749 98.6734 36.3603 101.732 34.4346 103.082C33.8181 103.514 33.8843 104.146 34.6155 103.966C35.1944 103.824 35.9539 103.529 36.9328 102.965C39.9218 101.243 40.7083 97.3291 38.6633 93.5719C38.6633 93.5719 37.4048 91.756 36.5575 88.0927C35.7103 84.4293 37.0828 81.725 38.1913 81.0479C39.2998 80.3709 40.6665 80.8483 42.7534 84.9617C43.801 87.0266 44.3123 87.9654 44.672 88.6259C45.0288 89.2811 45.2364 89.6624 45.6706 90.5974C45.7467 90.7615 45.8226 90.9253 45.8983 91.0887C46.2874 91.9285 46.6724 92.7593 47.0704 93.5719C48.0403 95.5519 49.0877 97.4234 50.4617 99.0511C53.7653 102.965 58.4846 105 66.9795 105C75.4744 105 83.0254 103.434 87.4301 98.8946C89.0669 97.2076 89.9651 95.3477 90.4235 93.5719C90.6912 92.5346 90.8088 91.5261 90.8359 90.5974C90.8872 88.8374 90.6132 87.3644 90.4191 86.5272C89.9472 84.492 86.8009 81.5584 82.7108 81.0479C86.6473 81.1538 90.5913 81.2188 94.5092 81.0479C96.4972 80.9612 100.337 81.5316 101.844 81.9224L102.847 82.1808L102.85 82.1818L102.859 82.1838C105.974 82.9772 109.374 83.7167 113.072 83.2396L114.488 83.0422C114.794 82.9963 115.093 82.952 115.386 82.9088L115.39 82.9081L115.392 82.9079C117.37 82.6156 119.039 82.3689 120.392 81.9468L122.668 81.361C126.129 80.5783 131.163 79.7955 132.893 80.2652C128.331 80.2652 119.365 82.1438 115.904 84.6486C114.82 85.4328 115.94 86.3491 117.229 87.4038C118.39 88.3543 119.689 89.4173 119.636 90.5974C119.56 92.2898 118.421 92.0064 118.421 92.0064C118.287 92.0822 117.565 92.5154 117.443 92.6742C117.268 92.9004 117.032 93.205 116.533 93.5719C115.085 94.6362 112.381 95.1346 110.922 95.3353C110.286 95.4226 109.698 95.7335 109.297 96.2332C109.712 96.0263 110.163 95.8995 110.623 95.834C111.34 95.7319 112.558 95.5243 114.016 95.1374C116.134 94.5753 117.491 93.761 117.747 93.6001C117.777 93.5816 117.81 93.5719 117.845 93.5719C117.97 93.5719 118.046 93.6938 117.975 93.7969C117.77 94.0953 117.282 94.6589 116.218 95.2939C115.315 95.8331 114.205 96.3207 113.423 96.6382C112.798 96.892 112.274 97.3525 111.971 97.9553L112.081 97.8728C112.425 97.6163 112.808 97.4179 113.21 97.2701C114.016 96.9742 115.458 96.4055 116.533 95.7636C117.897 94.9493 118.788 93.8996 119.001 93.6347C119.032 93.5951 119.08 93.5719 119.131 93.5719C119.244 93.5719 119.322 93.6851 119.284 93.7914C119.129 94.2166 118.775 95.215 118.421 96.3898C118.166 97.2355 118.049 98.0356 117.995 98.5925C117.945 99.1013 118.047 99.6079 118.237 100.082L118.263 100.147V99.9024C118.263 99.5452 118.311 99.1897 118.405 98.8449C118.569 98.2382 118.843 97.2126 119.05 96.3898C119.323 95.3042 119.832 93.9835 119.963 93.6508C119.982 93.6026 120.028 93.5719 120.08 93.5719C120.124 93.5719 120.165 93.5949 120.186 93.6342C120.3 93.8502 120.674 94.6336 120.938 96.0767C121.104 96.9879 121.05 97.8115 120.963 98.385C120.881 98.9233 120.892 99.4852 121.095 99.9904C121.095 99.5776 121.186 99.1704 121.304 98.775C121.471 98.2193 121.662 97.333 121.567 96.3898C121.418 94.9047 120.985 93.8423 120.941 93.737C120.94 93.7339 120.939 93.7309 120.939 93.7278C120.938 93.7248 120.938 93.7216 120.938 93.7183C120.938 93.6713 120.998 93.6505 121.027 93.6875L121.03 93.6916C121.285 94.0168 121.763 94.6266 122.039 95.4505C122.23 96.0222 122.344 96.5653 122.345 96.9556C122.345 97.1483 122.407 97.4787 122.455 97.7066C122.486 97.8517 122.511 97.9553 122.511 97.9553C122.484 97.8742 122.466 97.791 122.455 97.7066C122.426 97.4778 122.452 97.2401 122.496 97.0127C122.552 96.7199 122.587 96.2975 122.511 95.7636C122.354 94.6677 121.724 93.7284 121.567 93.5719C122.503 92.5084 122.876 91.5046 122.925 90.5974C123.017 88.9069 121.987 87.5518 121.393 86.7706C121.339 86.6996 121.289 86.6334 121.243 86.5721L121.241 86.5695L121.241 86.5687L121.238 86.5657C121.185 86.4937 121.137 86.4286 121.095 86.3706C120.423 85.4313 121.41 84.0224 121.41 84.0224C121.41 84.0224 120.623 86.0575 121.724 86.5272C122.825 86.9968 138.399 87.9361 139.973 83.0831C140.35 81.9175 140.184 80.9325 139.712 80.1086C138.221 77.5022 133.68 76.508 133.68 76.508C141.063 77.7325 141.654 83.3882 141.815 84.9313C141.833 85.0963 141.845 85.2143 141.86 85.2748C141.868 85.3045 141.875 85.3352 141.883 85.3666C142.036 85.995 142.257 86.9017 143.905 86.3706C145.267 85.9318 146.88 85.383 147.483 85.0966C148.274 84.7213 148.682 84.5275 149.411 84.6486C150.096 84.7621 150.78 84.9397 151.456 85.1149C153.575 85.6647 155.546 85.2748 157.277 84.6486C157.813 84.4547 158.273 84.2758 158.719 84.1027C159.712 83.7166 160.633 83.3589 162.154 82.9265C162.803 82.7418 163.576 82.5435 164.355 82.3436C166.217 81.8658 168.113 81.3791 168.446 81.0479C168.918 80.5783 170.334 79.639 170.334 79.639C170.334 79.639 171.435 78.9841 170.806 77.7604Z" fill="#263A12"/>
<path fill-rule="evenodd" clip-rule="evenodd" d="M170.336 76.7246C169.9 75.6999 169.441 74.6226 168.603 74.1597C168.058 73.8582 167.349 73.8819 166.549 73.9087C165.272 73.9514 163.762 74.0019 162.311 72.7508C161.511 72.0605 160.764 71.118 159.993 70.1434C158.49 68.2445 156.418 67.3192 154.131 66.8019C150.67 66.0192 146.58 67.5847 146.58 67.5847C146.58 67.5847 139.973 69.6198 138.242 63.984C136.512 58.3482 131.95 56 131.95 56C131.95 56 128.646 59.131 126.129 59.131H119.522C119.522 59.131 117.229 61.7923 114.488 61.9489C111.747 62.1054 109.139 61.4792 109.139 61.4792C109.139 61.4792 106.622 63.984 103.476 64.7668C100.33 65.5495 97.3408 63.984 97.3408 63.984C97.3408 63.984 95.1428 66.4888 90.4235 67.5847C87.263 68.3185 85.7232 67.9291 84.3894 67.5917C83.7315 67.4253 83.1236 67.2716 82.3961 67.2716C82.3961 67.2716 82.7108 69.1502 81.295 70.0895C79.8791 71.0288 77.5719 71.6028 73.272 72.4377C72.9504 72.5025 72.585 72.5723 72.1843 72.6489L72.1829 72.6492C67.4217 73.559 57.6981 75.417 57.6981 81.0479C57.6981 81.0479 57.6981 84.8051 63.6759 85.2748C69.6538 85.7444 76.6007 87.7887 76.8902 90.5974C77.0057 91.7182 76.3897 92.7229 75.2776 93.5719C70.7692 97.0135 58.1087 97.8952 52.9851 93.5719C52.4876 93.1521 52.0612 92.6833 51.7202 92.1629C51.4225 91.7087 51.1083 91.1792 50.7781 90.5974C50.4336 89.9906 50.0716 89.3265 49.6928 88.6317L49.6921 88.6304C48.3114 86.0978 46.7059 83.1527 44.9002 81.0479C42.2749 77.9878 38.3077 77.6417 36.2663 79.6833C34.2249 81.725 34.0405 84.1789 34.0405 87.1534C34.0405 90.1278 35.8316 93.5719 35.8316 93.5719C39.1749 98.6734 36.3603 101.732 34.4346 103.082C33.8181 103.514 33.8843 104.146 34.6155 103.966C35.1944 103.824 35.9539 103.529 36.9328 102.965C39.9218 101.243 40.7083 97.3291 38.6633 93.5719C38.6633 93.5719 37.4048 91.756 36.5575 88.0927C35.7103 84.4293 37.0828 81.725 38.1913 81.0479C39.2998 80.3709 40.6665 80.8483 42.7534 84.9617C43.801 87.0266 44.3123 87.9654 44.672 88.6259C45.0288 89.2811 45.2364 89.6624 45.6706 90.5974C45.7467 90.7615 45.8226 90.9253 45.8983 91.0887C46.2874 91.9285 46.6724 92.7593 47.0704 93.5719C48.0403 95.5519 49.0877 97.4234 50.4617 99.0511C53.7653 102.965 58.4846 105 66.9795 105C75.4744 105 83.0254 103.434 87.4301 98.8946C89.0669 97.2076 89.9651 95.3477 90.4235 93.5719C90.6912 92.5346 90.8088 91.5261 90.8359 90.5974C90.8872 88.8374 90.6132 87.3644 90.4191 86.5272C89.9472 84.492 86.8009 81.5584 82.7108 81.0479C86.6473 81.1538 90.5913 81.2188 94.5092 81.0479C96.4972 80.9612 100.337 81.5316 101.844 81.9224L102.847 82.1808L102.85 82.1818L102.859 82.1838C105.974 82.9772 109.374 83.7167 113.072 83.2396L114.488 83.0422C114.794 82.9963 115.093 82.952 115.386 82.9088L115.39 82.9081L115.392 82.9079C117.37 82.6156 119.039 82.3689 120.392 81.9468L122.668 81.361C126.129 80.5783 131.163 79.7955 132.893 80.2652C128.331 80.2652 119.365 82.1438 115.904 84.6486C114.82 85.4328 115.94 86.3491 117.229 87.4038C118.39 88.3543 119.689 89.4173 119.636 90.5974C119.56 92.2898 118.421 92.0064 118.421 92.0064C118.287 92.0822 117.565 92.5154 117.443 92.6742C117.268 92.9004 117.032 93.205 116.533 93.5719C115.085 94.6362 112.381 95.1346 110.922 95.3353C110.286 95.4226 109.698 95.7335 109.297 96.2332C109.712 96.0263 110.163 95.8995 110.623 95.834C111.34 95.7319 112.558 95.5243 114.016 95.1374C116.134 94.5753 117.491 93.761 117.747 93.6001C117.777 93.5816 117.81 93.5719 117.845 93.5719C117.97 93.5719 118.046 93.6938 117.975 93.7969C117.77 94.0953 117.282 94.6589 116.218 95.2939C115.315 95.8331 114.205 96.3207 113.423 96.6382C112.798 96.892 112.274 97.3525 111.971 97.9553L112.081 97.8728C112.425 97.6163 112.808 97.4179 113.21 97.2701C114.016 96.9742 115.458 96.4055 116.533 95.7636C117.897 94.9493 118.788 93.8996 119.001 93.6347C119.032 93.5951 119.08 93.5719 119.131 93.5719C119.244 93.5719 119.322 93.6851 119.284 93.7914C119.129 94.2166 118.775 95.215 118.421 96.3898C118.166 97.2355 118.049 98.0356 117.995 98.5925C117.945 99.1013 118.047 99.6079 118.237 100.082L118.263 100.147V99.9024C118.263 99.5452 118.311 99.1897 118.405 98.8449C118.569 98.2382 118.843 97.2126 119.05 96.3898C119.323 95.3042 119.832 93.9835 119.963 93.6508C119.982 93.6026 120.028 93.5719 120.08 93.5719C120.124 93.5719 120.165 93.5949 120.186 93.6342C120.3 93.8502 120.674 94.6336 120.938 96.0767C121.104 96.9879 121.05 97.8115 120.963 98.385C120.881 98.9233 120.892 99.4852 121.095 99.9904C121.095 99.5776 121.186 99.1704 121.304 98.775C121.471 98.2193 121.662 97.333 121.567 96.3898C121.418 94.9047 120.985 93.8423 120.941 93.737C120.94 93.7339 120.939 93.7309 120.939 93.7278C120.938 93.7248 120.938 93.7216 120.938 93.7183C120.938 93.6713 120.998 93.6505 121.027 93.6875L121.03 93.6916C121.285 94.0168 121.763 94.6266 122.039 95.4505C122.23 96.0222 122.344 96.5653 122.345 96.9556C122.345 97.1483 122.407 97.4787 122.455 97.7066C122.466 97.791 122.484 97.8742 122.511 97.9553C122.511 97.9553 122.486 97.8517 122.455 97.7066C122.426 97.4778 122.452 97.2401 122.496 97.0127C122.552 96.7199 122.587 96.2975 122.511 95.7636C122.354 94.6677 121.724 93.7284 121.567 93.5719C122.503 92.5084 122.876 91.5046 122.925 90.5974C123.017 88.9069 121.987 87.5518 121.393 86.7706C121.339 86.6996 121.289 86.6334 121.243 86.5721L121.241 86.5695L121.241 86.5687L121.238 86.5657C121.185 86.4937 121.137 86.4286 121.095 86.3706C120.423 85.4313 121.41 84.0224 121.41 84.0224C121.41 84.0224 120.623 86.0575 121.724 86.5272C122.825 86.9968 138.399 87.9361 139.973 83.0831C140.35 81.9175 140.184 80.9325 139.712 80.1086C138.221 77.5022 133.68 76.508 133.68 76.508C141.063 77.7325 141.654 83.3882 141.815 84.9313C141.833 85.0963 141.845 85.2143 141.86 85.2748C141.868 85.3045 141.875 85.3352 141.883 85.3666C142.036 85.995 142.257 86.9017 143.905 86.3706C145.267 85.9318 146.88 85.383 147.483 85.0966C148.274 84.7213 148.682 84.5275 149.411 84.6486C150.096 84.7621 150.78 84.9397 151.456 85.1149C153.575 85.6647 155.546 85.2748 157.277 84.6486C157.813 84.4547 158.273 84.2758 158.719 84.1027C159.712 83.7166 160.633 83.3589 162.154 82.9265C162.803 82.7418 163.576 82.5435 164.355 82.3436C166.217 81.8658 168.113 81.3791 168.446 81.0479C168.918 80.5783 170.334 79.639 170.334 79.639C170.334 79.639 171.435 78.9841 170.806 77.7604C170.642 77.4412 170.49 77.0862 170.336 76.7246Z" fill="#263A12"/>
<path fill-rule="evenodd" clip-rule="evenodd" d="M138 0H65C29.1015 0 1.7926e-06 29.1015 1.7926e-06 65L0 196.743C3.59618 196.742 7.19235 195.815 10.4695 193.961C19.8006 188.68 30.9488 188.68 40.28 193.961C46.8344 197.67 54.6651 197.67 61.2195 193.961C70.5506 188.68 81.6988 188.68 91.03 193.961C97.5843 197.67 105.415 197.67 111.97 193.961C121.301 188.68 132.449 188.68 141.78 193.961C148.334 197.67 156.165 197.67 162.72 193.961C172.051 188.68 183.199 188.68 192.53 193.961C195.807 195.815 199.404 196.743 203 196.743V65C203 29.1015 173.899 0 138 0ZM166.549 73.9087C167.349 73.8819 168.058 73.8582 168.603 74.1597C169.441 74.6226 169.9 75.6999 170.336 76.7246C170.49 77.0862 170.642 77.4412 170.806 77.7604C171.435 78.9841 170.334 79.639 170.334 79.639C170.334 79.639 168.918 80.5783 168.446 81.0479C168.113 81.3791 166.217 81.8658 164.355 82.3436C163.576 82.5435 162.803 82.7418 162.154 82.9265C160.633 83.3589 159.712 83.7166 158.719 84.1027C158.273 84.2758 157.813 84.4547 157.277 84.6486C155.546 85.2748 153.575 85.6647 151.456 85.1149C150.78 84.9397 150.096 84.7621 149.411 84.6486C148.682 84.5275 148.274 84.7213 147.483 85.0966C146.88 85.383 145.267 85.9318 143.905 86.3706C142.257 86.9017 142.036 85.995 141.883 85.3666C141.875 85.3352 141.868 85.3045 141.86 85.2748C141.845 85.2143 141.833 85.0963 141.815 84.9313C141.654 83.3882 141.063 77.7325 133.68 76.508C133.68 76.508 138.221 77.5022 139.712 80.1086C140.184 80.9325 140.35 81.9175 139.973 83.0831C138.399 87.9361 122.825 86.9968 121.724 86.5272C120.623 86.0575 121.41 84.0224 121.41 84.0224C121.41 84.0224 120.423 85.4313 121.095 86.3706C121.137 86.4286 121.185 86.4937 121.238 86.5657L121.241 86.5687L121.241 86.5695L121.243 86.5721C121.289 86.6334 121.339 86.6996 121.393 86.7706C121.987 87.5518 123.017 88.9069 122.925 90.5974C122.876 91.5046 122.503 92.5084 121.567 93.5719C121.724 93.7284 122.354 94.6677 122.511 95.7636C122.587 96.2975 122.552 96.7199 122.496 97.0127C122.452 97.2401 122.426 97.4778 122.455 97.7066C122.486 97.8517 122.511 97.9553 122.511 97.9553C122.484 97.8742 122.466 97.791 122.455 97.7066C122.407 97.4787 122.345 97.1483 122.345 96.9556C122.344 96.5653 122.23 96.0222 122.039 95.4505C121.763 94.6266 121.285 94.0168 121.03 93.6916L121.027 93.6875C120.998 93.6505 120.938 93.6713 120.938 93.7183C120.938 93.7216 120.938 93.7248 120.939 93.7278C120.939 93.7309 120.94 93.7339 120.941 93.737C120.985 93.8423 121.418 94.9047 121.567 96.3898C121.662 97.333 121.471 98.2193 121.304 98.775C121.186 99.1704 121.095 99.5776 121.095 99.9904C120.892 99.4852 120.881 98.9233 120.963 98.385C121.05 97.8115 121.104 96.9879 120.938 96.0767C120.674 94.6336 120.3 93.8502 120.186 93.6342C120.165 93.5949 120.124 93.5719 120.08 93.5719C120.028 93.5719 119.982 93.6026 119.963 93.6508C119.832 93.9835 119.323 95.3042 119.05 96.3898C118.843 97.2126 118.569 98.2382 118.405 98.8449C118.311 99.1897 118.263 99.5452 118.263 99.9024V100.147L118.237 100.082C118.047 99.6079 117.945 99.1013 117.995 98.5925C118.049 98.0356 118.166 97.2355 118.421 96.3898C118.775 95.215 119.129 94.2166 119.284 93.7914C119.322 93.6851 119.244 93.5719 119.131 93.5719C119.08 93.5719 119.032 93.5951 119.001 93.6347C118.788 93.8996 117.897 94.9493 116.533 95.7636C115.458 96.4055 114.016 96.9742 113.21 97.2701C112.808 97.4179 112.425 97.6163 112.081 97.8728L111.971 97.9553C112.274 97.3525 112.798 96.892 113.423 96.6382C114.205 96.3207 115.315 95.8331 116.218 95.2939C117.282 94.6589 117.77 94.0953 117.975 93.7969C118.046 93.6938 117.97 93.5719 117.845 93.5719C117.81 93.5719 117.777 93.5816 117.747 93.6001C117.491 93.761 116.134 94.5753 114.016 95.1374C112.558 95.5243 111.34 95.7319 110.623 95.834C110.163 95.8995 109.712 96.0263 109.297 96.2332C109.698 95.7335 110.286 95.4226 110.922 95.3353C112.381 95.1346 115.085 94.6362 116.533 93.5719C117.032 93.205 117.268 92.9004 117.443 92.6742C117.565 92.5154 118.287 92.0822 118.421 92.0064C118.421 92.0064 119.56 92.2898 119.636 90.5974C119.689 89.4173 118.39 88.3543 117.229 87.4038C115.94 86.3491 114.82 85.4328 115.904 84.6486C119.365 82.1438 128.331 80.2652 132.893 80.2652C131.163 79.7955 126.129 80.5783 122.668 81.361L120.392 81.9468C119.039 82.3689 117.37 82.6156 115.392 82.9079L115.39 82.9081L115.386 82.9088C115.093 82.952 114.794 82.9963 114.488 83.0422L113.072 83.2396C109.374 83.7167 105.974 82.9772 102.859 82.1838L102.85 82.1818L102.847 82.1808L101.844 81.9224C100.337 81.5316 96.4972 80.9612 94.5092 81.0479C90.5913 81.2188 86.6473 81.1538 82.7108 81.0479C86.8009 81.5584 89.9472 84.492 90.4191 86.5272C90.6132 87.3644 90.8872 88.8374 90.8359 90.5974C90.8088 91.5261 90.6912 92.5346 90.4235 93.5719C89.9651 95.3477 89.0669 97.2076 87.4301 98.8946C83.0254 103.434 75.4744 105 66.9795 105C58.4846 105 53.7653 102.965 50.4617 99.0511C49.0877 97.4234 48.0403 95.5519 47.0704 93.5719C46.6724 92.7593 46.2874 91.9285 45.8983 91.0887L45.6706 90.5974C45.2364 89.6624 45.0288 89.2811 44.672 88.6259C44.3123 87.9654 43.801 87.0266 42.7534 84.9617C40.6665 80.8483 39.2998 80.3709 38.1913 81.0479C37.0828 81.725 35.7103 84.4293 36.5575 88.0927C37.4048 91.756 38.6633 93.5719 38.6633 93.5719C40.7083 97.3291 39.9218 101.243 36.9328 102.965C35.9539 103.529 35.1944 103.824 34.6155 103.966C33.8843 104.146 33.8181 103.514 34.4346 103.082C36.3603 101.732 39.1749 98.6734 35.8316 93.5719C35.8316 93.5719 34.0405 90.1278 34.0405 87.1534C34.0405 84.1789 34.2249 81.725 36.2663 79.6833C38.3077 77.6417 42.2749 77.9878 44.9002 81.0479C46.7059 83.1527 48.3114 86.0978 49.6921 88.6304L49.6928 88.6317C50.0716 89.3265 50.4336 89.9906 50.7781 90.5974C51.1083 91.1792 51.4225 91.7087 51.7202 92.1629C52.0612 92.6833 52.4876 93.1521 52.9851 93.5719C58.1087 97.8952 70.7692 97.0135 75.2776 93.5719C76.3897 92.7229 77.0057 91.7182 76.8902 90.5974C76.6007 87.7887 69.6538 85.7444 63.6759 85.2748C57.6981 84.8051 57.6981 81.0479 57.6981 81.0479C57.6981 75.417 67.4217 73.559 72.1829 72.6492L72.1843 72.6489C72.585 72.5723 72.9504 72.5025 73.272 72.4377C77.5719 71.6028 79.8791 71.0288 81.295 70.0895C82.7108 69.1502 82.3961 67.2716 82.3961 67.2716C83.1236 67.2716 83.7315 67.4253 84.3894 67.5917C85.7232 67.9291 87.263 68.3185 90.4235 67.5847C95.1428 66.4888 97.3408 63.984 97.3408 63.984C97.3408 63.984 100.33 65.5495 103.476 64.7668C106.622 63.984 109.139 61.4792 109.139 61.4792C109.139 61.4792 111.747 62.1054 114.488 61.9489C117.229 61.7923 119.522 59.131 119.522 59.131H126.129C128.646 59.131 131.95 56 131.95 56C131.95 56 136.512 58.3482 138.242 63.984C139.973 69.6198 146.58 67.5847 146.58 67.5847C146.58 67.5847 150.67 66.0192 154.131 66.8019C156.418 67.3192 158.49 68.2445 159.993 70.1434C160.764 71.118 161.511 72.0605 162.311 72.7508C163.762 74.0019 165.272 73.9514 166.549 73.9087Z" fill="#357934"/>
</svg>
