<svg width="159" height="193" viewBox="0 0 159 193" fill="none" xmlns="http://www.w3.org/2000/svg">
<path d="M0 0H159V112.5V112.5C159 156.407 123.407 192.5 79.5 192.5V192.5V192.5C35.5934 192.5 0 156.407 0 112.5V112.5L0 0Z" fill="#FFF6E8"/>
<path d="M93.8926 44.1405C90.0845 51.9657 81.8079 51.1748 83.4999 56.5C86.1735 64.9145 111.893 67.6405 118.893 78.6405C108.94 63 115.5 51 93.8926 44.1405Z" fill="#FF3366"/>
<path d="M93.8926 44.1405C90.0845 51.9657 81.8079 51.1748 83.4999 56.5C86.1735 64.9145 111.893 67.6405 118.893 78.6405C108.94 63 115.5 51 93.8926 44.1405Z" fill="url(#paint0_radial_333_46)" fill-opacity="0.7"/>
<path d="M70 40C64.0001 39.5 53.4999 43 52.5001 51C51.5002 59 55.5001 64.0541 64.0001 67.5C72.5001 70.9459 82.5002 75 82.5002 75C75.0002 70 78.5 65 72 59.5C65.5 54 58.9999 54 58.9999 54C58.9999 54 63.5 54.5 67 50.5C70.5 46.5 70 40 70 40Z" fill="url(#paint1_linear_333_46)"/>
<path d="M113.699 81.6019C106.025 75.8421 99.9428 74.6997 93.8416 72.5974C90.2011 71.3518 86.9116 69.2516 84.2486 66.4727C84.2486 66.4727 84.901 70.3126 91.0789 76.2357C96.2975 81.2756 103.684 85.0771 107.943 90.2994C112.138 95.8498 114.543 102.547 114.841 109.499L114.836 112.113C114.792 134.657 92.0745 150.089 71.1014 141.822L48.9847 133.105C34.5002 126.5 34.0285 105.5 40.0002 97C37.5002 100.558 35.0002 118.5 48.9847 125.5L74.9969 135.626C90.731 141.752 107.704 130.146 107.704 113.261V110.344C107.704 104.405 105.913 98.6041 102.565 93.7004C99.2173 88.7966 94.4684 85.0183 88.9396 82.8595L58.8751 71.167C54.393 69.4198 50.544 66.3567 47.8337 62.38C45.1235 58.4034 43.6787 53.6993 43.6893 48.8858V37.99C43.6893 37.99 50.0001 39.5 69.0001 31.5C93.8416 21.0404 81.8492 42.5709 74 48.8858C98 41 105.674 9.18627 72.0001 18C41.4349 26 30.0001 20 30.0001 20V48.185C29.998 55.7176 32.2665 63.0757 36.5091 69.2978C40.7518 75.5199 46.7713 80.3166 53.7812 83.0611L82.3492 94.2545C85.7988 95.6091 88.7596 97.974 90.8443 101.04C92.929 104.106 94.0404 107.73 94.0335 111.438V111.438C94.0335 119.271 86.1399 124.639 78.8555 121.761L56.2754 112.84C48.0279 109.588 44.7829 107 41.6844 101.04C38.5858 95.0798 44.5002 83.5 44.5002 83.5C19 102 26.3885 139.467 48.9847 148.359L65.8575 155.047C96.0538 167.017 128.808 144.766 128.808 112.284V108.443C128.808 97.6816 121.422 87.3522 113.699 81.6019Z" fill="#578270"/>
<defs>
<radialGradient id="paint0_radial_333_46" cx="0" cy="0" r="1" gradientUnits="userSpaceOnUse" gradientTransform="translate(92.6095 77.2673) rotate(-40.048) scale(38.1379 86.1067)">
<stop stop-color="#FFAD33"/>
<stop offset="0.664515" stop-color="#FF3366"/>
</radialGradient>
<linearGradient id="paint1_linear_333_46" x1="79.9036" y1="33.5" x2="49.5" y2="105" gradientUnits="userSpaceOnUse">
<stop offset="0.0414798" stop-color="#0000FF"/>
<stop offset="0.7701" stop-color="#4AF9E4"/>
</linearGradient>
</defs>
</svg>
