<svg width="57" height="80" viewBox="0 0 57 80" fill="none" xmlns="http://www.w3.org/2000/svg">
<path d="M37.172 15.7407C35.0094 20.1922 30.3093 19.7423 31.2702 22.7717C32.7884 27.5584 47.3939 29.1092 51.3691 35.3668C45.7169 26.4693 49.4425 19.6429 37.172 15.7407Z" fill="#FF3366"/>
<path d="M37.172 15.7407C35.0094 20.1922 30.3093 19.7423 31.2702 22.7717C32.7884 27.5584 47.3939 29.1092 51.3691 35.3668C45.7169 26.4693 49.4425 19.6429 37.172 15.7407Z" fill="url(#paint0_radial_470_2)" fill-opacity="0.7"/>
<path d="M23.6038 13.3852C20.1965 13.1007 14.2337 15.0918 13.6659 19.6428C13.0981 24.1937 15.3695 27.0689 20.1965 29.0292C25.0235 30.9894 30.7024 33.2957 30.7024 33.2957C26.4433 30.4513 28.4308 27.607 24.7396 24.4782C21.0483 21.3494 17.357 21.3494 17.357 21.3494C17.357 21.3494 19.9125 21.6338 21.9001 19.3583C23.8877 17.0828 23.6038 13.3852 23.6038 13.3852Z" fill="url(#paint1_linear_470_2)"/>
<path d="M48.4198 37.0514C44.0617 33.7748 40.6078 33.1249 37.1431 31.9289C35.0756 31.2204 33.2076 30.0256 31.6954 28.4448C31.6954 28.4448 32.0658 30.6292 35.5741 33.9987C38.5377 36.8657 42.7324 39.0283 45.1512 41.9991C47.533 45.1566 48.8992 48.9663 49.0681 52.9213C49.0419 66.4603 35.4221 75.7284 22.848 70.7637L11.6695 66.35C3.444 62.5927 3.17615 50.6463 6.56736 45.8109C5.14765 47.8353 3.72794 58.0417 11.6695 62.0238L24.8974 67.1823C34.5753 70.9565 45.015 63.8053 45.015 53.4018C45.0152 50.0234 43.9982 46.7235 42.097 43.9339C40.1958 41.1443 37.499 38.9948 34.3593 37.7668L17.2861 31.1152C14.7408 30.1213 12.555 28.3788 11.0159 26.1166C9.4768 23.8544 8.65635 21.1784 8.66237 18.4401V12.2418C8.66237 12.2418 12.2461 13.1008 23.0359 8.54981C37.1431 2.59963 30.3328 14.8477 25.8753 18.4401C39.5045 13.9541 43.8626 -4.14386 24.7396 0.870028C7.38214 5.42101 0.888462 2.00777 0.888462 2.00777V18.0415C0.887266 22.3265 2.17551 26.5123 4.58486 30.0519C6.9942 33.5915 10.4126 36.3202 14.3934 37.8815L30.6167 44.2491C32.5757 45.0197 34.2571 46.365 35.4409 48.1091C36.6248 49.8532 37.256 51.9148 37.252 54.0244C37.252 58.48 32.7694 61.5341 28.6327 59.8968L15.8098 54.8217C11.1262 52.9717 9.28341 51.4997 7.5238 48.1091C5.76418 44.7186 9.12283 38.1312 9.12283 38.1312C-5.35828 48.6553 -1.16249 69.9694 11.6696 75.0277L19.2235 78.0272C37.3442 85.2225 57 71.8469 57 52.3205C57 46.1987 52.8053 40.3226 48.4198 37.0514Z" fill="url(#paint2_linear_470_2)"/>
<defs>
<radialGradient id="paint0_radial_470_2" cx="0" cy="0" r="1" gradientUnits="userSpaceOnUse" gradientTransform="translate(36.4433 34.5856) rotate(-40.0971) scale(21.6735 48.9484)">
<stop stop-color="#FFAD33"/>
<stop offset="0.664515" stop-color="#FF3366"/>
</radialGradient>
<linearGradient id="paint1_linear_470_2" x1="29.2279" y1="9.6875" x2="11.9113" y2="50.3402" gradientUnits="userSpaceOnUse">
<stop offset="0.0414798" stop-color="#0000FF"/>
<stop offset="0.7701" stop-color="#4AF9E4"/>
</linearGradient>
<linearGradient id="paint2_linear_470_2" x1="57.1097" y1="2.00771" x2="0.747729" y2="92.9396" gradientUnits="userSpaceOnUse">
<stop stop-color="#4AF9E4"/>
<stop offset="1" stop-color="#0000FF"/>
</linearGradient>
</defs>
</svg>
