<svg width="442" height="171" viewBox="0 0 442 171" fill="none" xmlns="http://www.w3.org/2000/svg">
<path d="M10.5 5.5C10.5 2.73858 8.26142 0.5 5.5 0.5C2.73858 0.5 0.5 2.73858 0.5 5.5H10.5ZM401.464 169.036C403.417 170.988 406.583 170.988 408.536 169.036L440.355 137.216C442.308 135.263 442.308 132.097 440.355 130.145C438.403 128.192 435.237 128.192 433.284 130.145L405 158.429L376.716 130.145C374.763 128.192 371.597 128.192 369.645 130.145C367.692 132.097 367.692 135.263 369.645 137.216L401.464 169.036ZM0.5 5.5V65.5H10.5V5.5H0.5ZM25.5 90.5H385V80.5H25.5V90.5ZM400 105.5V165.5H410V105.5H400ZM385 90.5C393.284 90.5 400 97.2157 400 105.5H410C410 91.6929 398.807 80.5 385 80.5V90.5ZM0.5 65.5C0.5 79.3071 11.6929 90.5 25.5 90.5V80.5C17.2157 80.5 10.5 73.7843 10.5 65.5H0.5Z" fill="#FF3366"/>
</svg>
