<svg width="506" height="590" viewBox="0 0 506 590" fill="none" xmlns="http://www.w3.org/2000/svg">
<path d="M154.244 195.152C109.304 184.593 50.813 183.665 50.813 183.665C56.1109 194.376 59.2368 200.417 65.356 211.314C65.356 211.314 119.986 206.377 188.126 217.238C226.944 223.426 263.782 221.188 287.832 213.621L297.352 224.36C259.382 235.138 227.346 233.274 188.126 224.644C136.519 213.289 65.356 211.314 65.356 211.314C71.6411 222.845 75.4261 229.331 82.6707 240.937C82.6707 240.937 132.511 237.481 184.118 242.912C220.811 246.774 279.096 264.336 313.546 243.9L323.742 257.23C287.849 276.494 224.992 256.424 188.126 250.318C128.503 240.443 82.6707 240.937 82.6707 240.937C90.3418 253.603 94.8689 260.587 103.451 272.782C103.451 272.782 170.088 266.611 233.72 276.979C259.966 281.256 317.077 299.784 343.223 285.866L349.435 296.234C313.219 314.294 246.492 288.412 210.172 280.929C155.058 269.573 103.451 272.782 103.451 272.782C112.827 286.148 118.236 293.553 128.304 306.603C128.304 306.603 162.573 300.678 208.168 306.603C258.338 313.122 310.748 328.854 361.648 319.439L368.121 333.757C326.266 343.471 273.797 330.761 233.72 319.933C171.591 303.146 128.304 306.603 128.304 306.603C139.206 320.476 145.43 327.967 156.771 340.669C156.771 340.669 187.124 334.251 249.252 342.644C281.078 346.944 346.931 373.78 377.724 356.962L383.286 371.774C351.752 390.855 274.541 355.133 241.236 348.569C201.153 340.669 156.771 340.669 156.771 340.669C170.104 355.23 177.71 363.177 191.633 376.737C191.633 376.737 234.221 370.293 279.816 379.18C310.289 385.12 359.587 405.904 390.304 392.51L395.578 410.285C363.735 425.85 303.346 395.986 272.3 387.079C232.718 375.724 191.633 376.737 191.633 376.737C208.058 393.016 217.779 402.056 236.226 417.995C236.226 417.995 293.845 420.159 324.909 426.084C349.751 430.822 377.158 444.919 402.874 440.402L405.912 456.695C378.623 463.704 342.944 436.607 316.892 430.527C278.813 421.64 236.226 417.995 236.226 417.995C252.671 434.681 262.356 443.916 280.536 460.151C280.536 460.151 299.857 457.188 321.902 459.163C352.25 461.882 377.679 492.602 409.448 483.849L410.649 501.623C379.556 510.701 352.531 473.69 324.909 465.582C301.36 458.669 280.536 460.151 280.536 460.151C307.574 481.545 328.416 499.155 352.466 509.523C376.515 519.891 393.496 522.36 399.062 521.372C402.874 527.791 405.912 528.778 402.874 550.996C399.836 573.213 395.668 579.961 394.314 590L411.087 590C418.101 578.151 423.844 565.808 430.014 546.552C436.184 527.297 438.747 510.363 440.147 499.674C453.902 493.762 459.558 475.815 469.708 465.582C481.231 453.963 490.67 452.745 490.67 452.745C490.67 452.745 479.728 452.745 466.701 461.138C456.904 467.451 445.76 490.719 431.472 482.368C431.783 473.047 431.746 463.311 431.251 453.238C446.961 453.238 461.963 433.902 470.409 423.015L470.71 422.628C483.737 405.841 503.95 393.498 503.95 393.498C503.95 393.498 487.244 401.891 470.71 415.715C461.965 423.027 443.165 439.883 430.014 436.452C429.172 427.912 427.983 419.175 426.385 410.285C446.463 410.285 469.637 379.566 480.376 365.332L480.73 364.862C495.26 345.607 506 337.213 506 337.213C506 337.213 493.757 344.126 477.724 360.418C467.874 370.429 438.297 395.681 421.833 389.054C419.717 380.588 417.207 372.018 414.256 363.381C434.697 363.381 455.095 341.702 466.2 327.339C482.234 306.603 499.979 291.297 499.979 291.297C499.979 291.297 477.724 306.501 457.182 327.339C449.407 335.225 422.379 355.55 409.169 349.556C406.167 341.954 402.809 334.314 399.062 326.66C417.6 327.339 455.584 293.265 463.194 283.891C481.231 261.674 490.126 254.761 490.126 254.761C490.126 254.761 474.718 265.13 457.182 283.891C448.182 293.52 403.571 315.49 391.425 312.033C386.516 303.194 381.061 294.355 375.012 285.553C400.335 284.031 422.681 267.924 436.639 247.849C455.178 221.188 469.155 208.351 469.155 208.351C469.155 208.351 457.182 214.77 436.639 240.937C420.08 262.031 394.242 272.106 368.196 275.992C361.086 266.351 353.385 256.796 345.199 247.356C373.367 243.775 396.783 230.818 410.586 205.389C422.109 184.159 436.639 164.889 436.639 164.889C436.639 164.889 420.606 179.222 402.068 202.427C384.462 224.465 360.562 233.531 332.799 233.531C327.412 227.718 321.858 221.956 316.162 216.251C339.52 203.598 358.134 191.625 370.503 166.879C387.037 133.799 395.926 127.606 395.926 127.606C395.926 127.606 387.538 129.356 367.497 160.954C353.656 182.775 330.624 198.031 306.37 206.633C298.828 199.363 291.074 192.196 283.164 185.146C303.921 176.76 318.365 159.28 328.917 140.218C340.942 118.494 356.162 100.226 356.162 100.226C356.162 100.226 339.94 116.025 323.907 138.243C310.238 157.184 294.582 167.153 273.803 176.921C266.154 170.291 258.384 163.775 250.539 157.385C266.939 144.336 277.993 128.524 286.83 109.607C301.36 78.502 311.798 76.0334 311.798 76.0334C311.798 76.0334 300.358 77.0209 283.323 106.644C272.499 125.466 259.208 137.997 241.904 150.424C231.719 142.298 221.441 134.391 211.174 126.731C235.635 120.931 240.464 95.051 252.259 76.5272C264.785 56.8553 271.298 58.0361 271.298 58.0361C271.298 58.0361 263.782 55.6056 248.751 75.046C235.677 91.9555 226.867 116.311 203.837 121.298C195.045 114.834 186.279 108.557 177.604 102.486C191.8 93.4744 198.393 76.7995 205.161 62.2092C213.178 44.9288 221.194 39.8224 221.194 39.8224C221.194 39.8224 211.174 43.9414 200.652 63.6903C193.569 76.9839 184.223 89.4982 171.893 98.508C160.712 90.7598 149.708 83.3627 139.025 76.3561C141.296 63.7042 153.713 55.3383 164.578 49.8661C187.124 38.5104 174.598 26.13 174.598 26.13C174.598 26.13 180.611 37.523 159.066 46.9037C146.995 52.1597 135.05 57.8696 130.19 70.6025C120.768 64.5091 111.636 58.7395 102.897 53.3221C103.126 44.8101 108.584 36.909 114.474 31.1045C123.493 22.2175 122.491 14.0012 122.491 14.0012C122.491 14.0012 120.604 22.7112 109.464 30.1171C102.389 34.82 97.9475 40.6384 94.64 48.2355C83.5816 41.4659 73.2486 35.3114 63.8696 29.8356C71.6686 25.1671 68.3789 12.1796 75.3934 5.79991C66.8758 10.7371 64.8717 20.7363 54.9871 24.6861C27.5381 8.88658 10.259 0 10.259 0C5.00455 0 0 7.89298 0 22.7112C26.0538 18.7614 39.3189 27.1548 53.1526 25.4364L61.7294 30.8092C41.8241 34.5606 21.5445 21.2301 0 22.7112C0.427103 31.224 0.805797 35.9844 1.9315 44.4351C1.9315 44.4351 36.8138 49.3723 53.8489 51.3472C66.8027 52.849 78.5105 49.8661 91.0926 49.8661L99.9134 55.7907C80.2179 55.7907 63.4302 59.1609 43.3272 54.3096C18.7765 48.3849 1.9315 44.4351 1.9315 44.4351C3.48664 54.4906 4.63422 60.1144 7.25271 70.1159C7.25271 70.1159 52.3458 72.0836 76.8965 75.046C93.0101 76.9903 110.604 78.528 126.499 74.2338L135.017 80.3381C117.606 84.7341 96.8023 82.6906 79.4017 79.9832C50.8427 75.5397 7.25271 70.1159 7.25271 70.1159C9.95006 80.7954 11.7251 86.9872 15.4968 98.508C15.4968 98.508 53.3479 97.7573 84.412 101.213C111.031 104.175 137.495 104.659 164.077 101.945L171.592 107.745C145.792 119.003 105.876 108.45 79.4017 104.669C44.8303 99.7322 15.4968 98.508 15.4968 98.508C19.1578 110.215 21.4773 116.579 25.9149 127.606C25.9149 127.606 72.3872 125.406 109.464 128.862C136.754 131.406 167.473 135.333 193.746 125.406L202.708 132.812C181.969 147.749 133.966 135.735 111.468 132.812C65.8738 126.887 25.9149 127.606 25.9149 127.606C30.2866 139.279 32.9191 145.697 38.1122 156.793C38.1122 156.793 88.4206 152.067 143.534 158.979C171.517 162.489 202.902 165.626 230.405 156.793L238.23 163.906C202.713 172.842 176.09 170.577 139.526 164.41C83.911 155.029 38.1122 156.793 38.1122 156.793C42.7485 167.242 45.517 173.126 50.813 183.665C50.813 183.665 98.942 181.197 149.045 188.602C183.88 193.751 227.211 201.08 260.275 184.905L269.294 193.963C237.146 210.936 199.184 205.711 154.244 195.152Z" fill="#101F0E"/>
</svg>
