<svg width="672" height="160" viewBox="0 0 672 160" fill="none" xmlns="http://www.w3.org/2000/svg">
<path d="M73.3071 75.5C73.3071 75.5 77.8071 78.5 79.3071 80C80.3647 81.0576 86.3932 82.6123 92.3109 84.1383C94.7864 84.7767 97.2425 85.4101 99.3071 86C104.14 87.3808 107.066 88.5233 110.225 89.7566C111.641 90.3096 113.104 90.8808 114.807 91.5C120.307 93.5 126.573 94.7453 133.308 92.9895C135.456 92.4297 137.632 91.8626 139.807 91.5C139.999 91.2504 140.187 91.0045 140.373 90.7622C148.181 80.5753 151.084 76.7879 161.344 73.4083C149.716 76.4696 120.563 79.9933 108.307 75C94.8071 69.5 82.6404 75 73.3071 75.5Z" fill="#7AB849"/>
<path fill-rule="evenodd" clip-rule="evenodd" d="M78.8071 58C75.2072 60 73.8071 65.5917 71.8071 69.5C69.8071 73.4083 73.3071 75.5 73.3071 75.5C82.6404 75 94.8071 69.5 108.307 75C120.563 79.9933 149.716 76.4696 161.344 73.4083C162.269 73.1037 163.254 72.8024 164.307 72.5C171.807 62.5 176.307 57.5 165.807 53C160.904 50.8985 154.807 45.1721 154.807 45.1721C170.311 39.6165 180.047 46.6959 186.307 37C192.567 27.3041 218.307 32 233.91 32.6959C249.513 33.3918 271.468 27.9043 295.807 39C322.347 51.099 349.496 51.6212 368.218 51.9813C373.48 52.0825 378.077 52.1709 381.807 52.5C368.141 49.8333 360.807 48 356.307 45C351.807 42 352.807 36 352.807 36C345.807 36 342.293 40.5 327.293 37C312.293 33.5 305.307 25.5 305.307 25.5C305.307 25.5 295.807 30.5 285.807 28C275.807 25.5 267.807 17.5 267.807 17.5C267.807 17.5 259.518 19.5 250.807 19C242.096 18.5 234.807 10 234.807 10C234.807 10 221.807 10 213.807 10C205.807 10 195.307 0 195.307 0C195.307 0 180.807 7.5 175.307 25.5C169.807 43.5 148.807 37 148.807 37C148.807 37 135.807 32 124.807 34.5C117.538 36.152 110.953 39.1074 106.175 45.1721C103.722 48.2852 101.351 51.2953 98.8071 53.5C94.1964 57.496 89.3966 57.3346 85.3373 57.1982C82.7936 57.1127 80.5406 57.0369 78.8071 58ZM124.175 41.5C115.675 39 106.175 53 106.175 53C107.675 56 120.675 54 127.175 49.5C130.03 47.5233 131.438 46.222 131.399 45.1721C131.349 43.832 128.941 42.9018 124.175 41.5Z" fill="#3D5F23"/>
<path d="M500.807 120C488.119 139.456 503.337 149.609 508.328 152.277C508.99 152.631 509.003 153.419 508.258 153.514C506.514 153.737 503.133 153.373 497.307 150C487.807 144.5 485.307 132 491.807 120H500.807Z" fill="#63824B"/>
<path d="M314.307 80C313.093 79.7741 310.915 78.7161 308.807 74.5C307.672 72.2289 307.163 70.4593 306.705 68.8658C305.953 66.2493 305.337 64.1075 302.307 61C305.645 62.6689 307.329 66.0787 309.03 69.5224C311.406 74.3324 314.314 79.7086 321.307 80C321.27 80.4398 315.808 80.6715 314.307 80Z" fill="#2C3C20"/>
<path d="M278.807 73C280.307 79 286.932 81.5287 290.994 82.793L290.986 82.795L287.807 83.6183L287.795 83.6215L287.77 83.6279C287.413 83.7122 284.547 84.2402 280.807 80.5C276.807 76.5 276.307 73 276.807 68.5C277.307 64 275.807 60.5 275.807 60.5C277.653 63.8836 277.795 65.5641 277.981 67.7534C278.097 69.1227 278.23 70.6912 278.807 73Z" fill="#2C3C20"/>
<path d="M247.807 75.4895C247.807 81 252.14 84.493 255.307 87L250.807 86.3695C250.807 86.3695 247.307 83.5 246.307 80.5C245.307 77.5 244.807 74 247.307 70C249.807 66 248.807 62.5 248.807 62.5C249.983 64.2642 249.43 66.5399 248.775 69.236C248.316 71.1246 247.807 73.2195 247.807 75.4895Z" fill="#2C3C20"/>
<path d="M208.807 55C204.307 53 192.307 54 192.307 54C195.27 52.3528 201.807 47.5 202.807 45C203.807 42.5 202.307 38.5 202.307 38.5C202.307 38.5 205.807 43.5 202.807 47C199.807 50.5 195.307 53 195.307 53C195.307 53 207.567 51 211.567 55C214.627 58.0603 215.779 61.1206 217.943 66.8678C218.608 68.6326 219.367 70.6507 220.307 73C222.444 78.3428 226.371 81.0938 232.041 82.8709L224.807 81C224.807 81 218.807 77.5 217.307 72.5C217.135 71.9247 216.949 71.2765 216.748 70.5769C215.205 65.1962 212.789 56.7699 208.807 55Z" fill="#2C3C20"/>
<path d="M381.807 52.5C394.974 55.1667 431.307 60.5 431.307 80C431.307 80 431.307 92 412.307 93.5C393.307 95 371.227 101.529 370.307 110.5C369.94 114.08 371.898 117.289 375.433 120C389.762 130.992 430.002 133.808 446.287 120C447.868 118.659 449.223 117.162 450.307 115.5C451.253 114.049 452.252 112.358 453.302 110.5C454.397 108.56 455.548 106.439 456.753 104.218C461.141 96.1288 466.245 86.7223 471.984 80C480.328 70.2262 490.017 66.1265 500.807 80H493.307C493.307 80 488.307 77 478.807 92.5C475.195 98.3931 472.306 104.503 469.535 110.5C468.049 113.716 466.597 116.9 465.086 120C462.003 126.324 458.674 132.301 454.307 137.5C443.807 150 428.807 156.5 401.807 156.5C374.807 156.5 350.807 151.5 336.807 137C331.605 131.612 328.75 125.672 327.293 120C326.442 116.687 326.068 113.466 325.982 110.5C325.819 104.879 326.69 100.174 327.307 97.5C328.807 91 338.807 81.6305 351.807 80C351.807 80 333.307 80.5 321.307 80C314.314 79.7086 311.406 74.3324 309.03 69.5224C307.329 66.0787 305.645 62.6689 302.307 61C305.337 64.1075 305.953 66.2493 306.705 68.8658C307.163 70.4593 307.672 72.2289 308.807 74.5C310.915 78.7161 313.093 79.7741 314.307 80C307.989 79.723 295.786 81.5449 290.994 82.793C286.932 81.5287 280.307 79 278.807 73C278.23 70.6912 278.097 69.1227 277.981 67.7534C277.795 65.5641 277.653 63.8836 275.807 60.5C275.807 60.5 277.307 64 276.807 68.5C276.307 73 276.807 76.5 280.807 80.5C284.547 84.2402 287.413 83.7122 287.77 83.6279C277.869 86.1619 267.062 88.5238 255.307 87C252.14 84.493 247.807 81 247.807 75.4895C247.807 73.2195 248.316 71.1246 248.775 69.236C249.43 66.5399 249.983 64.2642 248.807 62.5C248.807 62.5 249.807 66 247.307 70C244.807 74 245.307 77.5 246.307 80.5C247.307 83.5 250.807 86.3695 250.807 86.3695C249.828 86.2217 248.87 86.0794 247.934 85.9404L247.93 85.9399C241.645 85.0065 236.342 84.2189 232.041 82.8709C226.371 81.0938 222.444 78.3428 220.307 73C219.367 70.6507 218.608 68.6326 217.943 66.8678C215.779 61.1206 214.627 58.0603 211.567 55C207.567 51 195.307 53 195.307 53C195.307 53 199.807 50.5 202.807 47C205.807 43.5 202.307 38.5 202.307 38.5C202.307 38.5 203.807 42.5 202.807 45C201.807 47.5 195.27 52.3528 192.307 54C192.307 54 204.307 53 208.807 55C212.789 56.7699 215.205 65.1962 216.748 70.5769C216.949 71.2765 217.135 71.9247 217.307 72.5C218.807 77.5 224.807 81 224.807 81C213.807 78.5 197.807 76 192.307 77.5C206.807 77.5 235.307 83.5 246.307 91.5C249.751 94.0048 246.192 96.9312 242.096 100.3C238.404 103.336 234.276 106.731 234.444 110.5C234.686 115.905 238.307 115 238.307 115C238.731 115.242 241.026 116.626 241.416 117.133C241.972 117.855 242.721 118.828 244.307 120C249.449 123.798 259.573 125.34 263.598 125.82C264.691 125.95 265.697 126.487 266.384 127.346L267.307 128.5L265.982 127.838C265.536 127.614 265.052 127.477 264.557 127.418C262.81 127.21 258.17 126.563 252.307 125C245.577 123.205 241.262 120.605 240.448 120.09C240.354 120.031 240.248 120 240.137 120C239.74 120 239.498 120.387 239.722 120.716C240.371 121.668 241.923 123.469 245.307 125.5C248.879 127.643 253.472 129.531 255.804 130.435C256.766 130.808 257.565 131.515 258.026 132.438L258.807 134L257.326 132.889C256.982 132.632 256.603 132.432 256.198 132.29C254.312 131.629 248.451 129.486 244.307 127C239.973 124.399 237.141 121.047 236.464 120.201C236.363 120.074 236.212 120 236.05 120C235.69 120 235.44 120.359 235.563 120.697C236.054 122.053 237.18 125.244 238.307 129C239.435 132.76 239.715 136.237 239.784 137.731C239.808 138.239 239.71 138.743 239.521 139.215L238.807 141V139.036C238.807 138.68 238.76 138.327 238.667 137.984C238.272 136.525 237.123 132.263 236.307 129C235.44 125.532 233.821 121.312 233.406 120.251C233.346 120.098 233.199 120 233.035 120C232.894 120 232.764 120.073 232.698 120.198C232.335 120.887 231.145 123.39 230.307 128C229.647 131.633 230.077 134.83 230.445 136.582C230.64 137.508 230.614 138.482 230.263 139.36L229.807 140.5V139.349C229.807 138.789 229.688 138.236 229.499 137.71C228.959 136.205 227.933 132.742 228.307 129C228.782 124.256 230.156 120.862 230.296 120.527C230.304 120.508 230.307 120.489 230.307 120.468C230.307 120.318 230.114 120.252 230.022 120.37C229.215 121.406 227.688 123.358 226.807 126C226.046 128.285 225.671 130.427 225.903 131.648C226.004 132.175 226.061 132.845 225.766 133.293C225.529 133.655 225.307 134 225.307 134C225.627 133.04 225.546 131.984 225.355 130.99C225.176 130.054 225.064 128.705 225.307 127C225.807 123.5 227.807 120.5 228.307 120C225.331 116.603 224.148 113.397 223.991 110.5C223.699 105.101 226.973 100.772 228.86 98.2774C229.032 98.0508 229.191 97.8394 229.336 97.6436C229.512 97.4055 229.671 97.1906 229.807 97C231.944 94 228.807 89.5 228.807 89.5C228.807 89.5 231.307 96 227.807 97.5C224.307 99 174.807 102 169.807 86.5C168.606 82.7773 169.136 79.6314 170.634 77C175.374 68.6753 189.807 65.5 189.807 65.5C163.833 69.8291 164.307 91.5 163.807 93.5C163.307 95.5 162.807 98.7808 157.307 97C152.979 95.5985 147.853 93.8458 145.935 92.931C143.423 91.7322 142.126 91.1135 139.807 91.5L140.373 90.7622C148.181 80.5753 151.084 76.7879 161.344 73.4083C162.524 73.0977 163.524 72.7918 164.307 72.5C171.807 62.5 176.307 57.5 165.807 53C160.904 50.8985 154.807 45.1721 154.807 45.1721C170.311 39.6165 180.047 46.6959 186.307 37C192.567 27.3041 218.307 32 233.91 32.6959C249.513 33.3918 271.468 27.9043 295.807 39C322.347 51.099 349.496 51.6212 368.218 51.9813C373.48 52.0825 378.077 52.1709 381.807 52.5Z" fill="#6C924E"/>
<path d="M381.807 52.5C394.974 55.1667 431.307 60.5 431.307 80C431.307 80 431.307 92 412.307 93.5C393.307 95 371.227 101.529 370.307 110.5C369.94 114.08 371.898 117.289 375.433 120C389.762 130.992 430.002 133.808 446.287 120C447.868 118.659 449.223 117.162 450.307 115.5C451.253 114.049 452.252 112.358 453.302 110.5C454.397 108.56 455.548 106.439 456.753 104.218C461.141 96.1288 466.245 86.7223 471.984 80C480.328 70.2262 490.017 66.1265 500.807 80H493.307C493.307 80 488.307 77 478.807 92.5C475.195 98.3931 472.306 104.503 469.535 110.5C468.049 113.716 466.597 116.9 465.086 120C462.003 126.324 458.674 132.301 454.307 137.5C443.807 150 428.807 156.5 401.807 156.5C374.807 156.5 350.807 151.5 336.807 137C331.605 131.612 328.75 125.672 327.293 120C326.442 116.687 326.068 113.466 325.982 110.5C325.819 104.879 326.69 100.174 327.307 97.5C328.807 91 338.807 81.6305 351.807 80C351.807 80 333.307 80.5 321.307 80C314.314 79.7086 311.406 74.3324 309.03 69.5224C307.329 66.0787 305.645 62.6689 302.307 61C305.337 64.1075 305.953 66.2493 306.705 68.8658C307.163 70.4593 307.672 72.2289 308.807 74.5C310.915 78.7161 313.093 79.7741 314.307 80C307.989 79.723 295.786 81.5449 290.994 82.793C286.932 81.5287 280.307 79 278.807 73C278.23 70.6912 278.097 69.1227 277.981 67.7534C277.795 65.5641 277.653 63.8836 275.807 60.5C275.807 60.5 277.307 64 276.807 68.5C276.307 73 276.807 76.5 280.807 80.5C284.547 84.2402 287.413 83.7122 287.77 83.6279C277.869 86.1619 267.062 88.5238 255.307 87C252.14 84.493 247.807 81 247.807 75.4895C247.807 73.2195 248.316 71.1246 248.775 69.236C249.43 66.5399 249.983 64.2642 248.807 62.5C248.807 62.5 249.807 66 247.307 70C244.807 74 245.307 77.5 246.307 80.5C247.307 83.5 250.807 86.3695 250.807 86.3695C249.828 86.2217 248.87 86.0794 247.934 85.9404L247.93 85.9399C241.645 85.0065 236.342 84.2189 232.041 82.8709C226.371 81.0938 222.444 78.3428 220.307 73C219.367 70.6507 218.608 68.6326 217.943 66.8678C215.779 61.1206 214.627 58.0603 211.567 55C207.567 51 195.307 53 195.307 53C195.307 53 199.807 50.5 202.807 47C205.807 43.5 202.307 38.5 202.307 38.5C202.307 38.5 203.807 42.5 202.807 45C201.807 47.5 195.27 52.3528 192.307 54C192.307 54 204.307 53 208.807 55C212.789 56.7699 215.205 65.1962 216.748 70.5769C216.949 71.2765 217.135 71.9247 217.307 72.5C218.807 77.5 224.807 81 224.807 81C213.807 78.5 197.807 76 192.307 77.5C206.807 77.5 235.307 83.5 246.307 91.5C249.751 94.0048 246.192 96.9312 242.096 100.3C238.404 103.336 234.276 106.731 234.444 110.5C234.686 115.905 238.307 115 238.307 115C238.731 115.242 241.026 116.626 241.416 117.133C241.972 117.855 242.721 118.828 244.307 120C249.449 123.798 259.573 125.34 263.598 125.82C264.691 125.95 265.697 126.487 266.384 127.346L267.307 128.5L265.982 127.838C265.536 127.614 265.052 127.477 264.557 127.418C262.81 127.21 258.17 126.563 252.307 125C245.577 123.205 241.262 120.605 240.448 120.09C240.354 120.031 240.248 120 240.137 120C239.74 120 239.498 120.387 239.722 120.716C240.371 121.668 241.923 123.469 245.307 125.5C248.879 127.643 253.472 129.531 255.804 130.435C256.766 130.808 257.565 131.515 258.026 132.438L258.807 134L257.326 132.889C256.982 132.632 256.603 132.432 256.198 132.29C254.312 131.629 248.451 129.486 244.307 127C239.973 124.399 237.141 121.047 236.464 120.201C236.363 120.074 236.212 120 236.05 120C235.69 120 235.44 120.359 235.563 120.697C236.054 122.053 237.18 125.244 238.307 129C239.435 132.76 239.715 136.237 239.784 137.731C239.808 138.239 239.71 138.743 239.521 139.215L238.807 141V139.036C238.807 138.68 238.76 138.327 238.667 137.984C238.272 136.525 237.123 132.263 236.307 129C235.44 125.532 233.821 121.312 233.406 120.251C233.346 120.098 233.199 120 233.035 120C232.894 120 232.764 120.073 232.698 120.198C232.335 120.887 231.145 123.39 230.307 128C229.647 131.633 230.077 134.83 230.445 136.582C230.64 137.508 230.614 138.482 230.263 139.36L229.807 140.5V139.349C229.807 138.789 229.688 138.236 229.499 137.71C228.959 136.205 227.933 132.742 228.307 129C228.782 124.256 230.156 120.862 230.296 120.527C230.304 120.508 230.307 120.489 230.307 120.468C230.307 120.318 230.114 120.252 230.022 120.37C229.215 121.406 227.688 123.358 226.807 126C226.046 128.285 225.671 130.427 225.903 131.648C226.004 132.175 226.061 132.845 225.766 133.293C225.529 133.655 225.307 134 225.307 134C225.627 133.04 225.546 131.984 225.355 130.99C225.176 130.054 225.064 128.705 225.307 127C225.807 123.5 227.807 120.5 228.307 120C225.331 116.603 224.148 113.397 223.991 110.5C223.699 105.101 226.973 100.772 228.86 98.2774C229.032 98.0508 229.191 97.8394 229.336 97.6436C229.512 97.4055 229.671 97.1906 229.807 97C231.944 94 228.807 89.5 228.807 89.5C228.807 89.5 231.307 96 227.807 97.5C224.307 99 174.807 102 169.807 86.5C168.606 82.7773 169.136 79.6314 170.634 77C175.374 68.6753 189.807 65.5 189.807 65.5C163.833 69.8291 164.307 91.5 163.807 93.5C163.307 95.5 162.807 98.7808 157.307 97C152.979 95.5985 147.853 93.8458 145.935 92.931C143.423 91.7322 142.126 91.1135 139.807 91.5L140.373 90.7622C148.181 80.5753 151.084 76.7879 161.344 73.4083C162.524 73.0977 163.524 72.7918 164.307 72.5C171.807 62.5 176.307 57.5 165.807 53C160.904 50.8985 154.807 45.1721 154.807 45.1721C170.311 39.6165 180.047 46.6959 186.307 37C192.567 27.3041 218.307 32 233.91 32.6959C249.513 33.3918 271.468 27.9043 295.807 39C322.347 51.099 349.496 51.6212 368.218 51.9813C373.48 52.0825 378.077 52.1709 381.807 52.5Z" fill="url(#paint0_linear_6_277)" fill-opacity="0.9"/>
<path d="M189.807 65.5C189.807 65.5 175.374 68.6753 170.634 77C170.634 77 168.807 80 167.307 84C166.476 86.2163 166.247 88.5861 166.045 90.6841C165.882 92.3727 165.737 93.8852 165.307 95C164.344 97.5 162.807 98.7808 157.307 97C162.807 98.7808 163.307 95.5 163.807 93.5C164.307 91.5 163.833 69.8291 189.807 65.5Z" fill="#2C3B20"/>
<path d="M106.175 53C106.175 53 115.675 39 124.175 41.5C128.941 42.9018 131.349 43.832 131.399 45.1721C131.438 46.222 130.03 47.5233 127.175 49.5C120.675 54 107.675 56 106.175 53Z" fill="#B1C6A1"/>
<path d="M336.807 137C350.807 151.5 374.807 156.5 401.807 156.5C428.807 156.5 443.807 150 454.307 137.5C458.674 132.301 462.003 126.324 465.086 120C465.086 129 453.787 142 446.287 148C438.787 154 426.807 160 401.807 160C376.807 160 354.307 153 343.807 145.5C333.307 138 327.307 127.5 327.293 120C328.75 125.672 331.605 131.612 336.807 137Z" fill="#7AB849"/>
<path fill-rule="evenodd" clip-rule="evenodd" d="M224.807 81C213.807 78.5 197.807 76 192.307 77.5C206.807 77.5 235.307 83.5 246.307 91.5C249.751 94.0048 246.192 96.9312 242.096 100.3C238.404 103.336 234.276 106.731 234.444 110.5H325.982C325.819 104.879 326.69 100.174 327.307 97.5C328.807 91 338.807 81.6305 351.807 80C351.807 80 333.307 80.5 321.307 80C321.27 80.4398 315.808 80.6715 314.307 80C307.989 79.723 295.786 81.5449 290.994 82.793L290.986 82.795L287.807 83.6183L287.795 83.6215L287.77 83.6279C277.869 86.1619 267.062 88.5238 255.307 87L250.807 86.3695C249.828 86.2217 248.87 86.0794 247.934 85.9404L247.93 85.9399C241.645 85.0065 236.342 84.2189 232.041 82.8709L224.807 81Z" fill="#4D340F"/>
<path fill-rule="evenodd" clip-rule="evenodd" d="M412.307 93.5C393.307 95 371.227 101.529 370.307 110.5H453.302C454.397 108.56 455.548 106.439 456.753 104.218C461.141 96.1288 466.245 86.7223 471.984 80H431.307C431.307 80 431.307 92 412.307 93.5Z" fill="#4D340F"/>
<path fill-rule="evenodd" clip-rule="evenodd" d="M698.307 110.5V80H500.807H493.307C493.307 80 488.307 77 478.807 92.5C475.195 98.3931 472.306 104.503 469.535 110.5H698.307Z" fill="#4D340F"/>
<path d="M698.307 120H500.807H491.807H465.086C466.597 116.9 468.049 113.716 469.535 110.5H698.307V120Z" fill="#281E0E"/>
<path d="M375.433 120C371.898 117.289 369.94 114.08 370.307 110.5H453.302C452.252 112.358 451.253 114.049 450.307 115.5C449.223 117.162 447.868 118.659 446.287 120H375.433Z" fill="#281E0E"/>
<path d="M238.307 115C238.307 115 234.686 115.905 234.444 110.5H325.982C326.068 113.466 326.442 116.687 327.293 120H244.307C242.721 118.828 241.972 117.855 241.416 117.133C241.026 116.626 238.731 115.242 238.307 115Z" fill="#281E0E"/>
<path d="M0.936829 87.9014C-1.42151 84.5914 0.944824 80 5.00897 80H79.3071C80.3647 81.0576 86.3932 82.6123 92.3109 84.1383C94.7864 84.7767 97.2425 85.4101 99.3071 86C104.14 87.3808 107.066 88.5233 110.225 89.7566C111.641 90.3096 113.104 90.8808 114.807 91.5C120.307 93.5 126.573 94.7453 133.308 92.9895C135.456 92.4297 137.632 91.8626 139.807 91.5C142.126 91.1135 143.423 91.7322 145.935 92.931C147.853 93.8458 152.979 95.5985 157.307 97C162.807 98.7808 164.344 97.5 165.307 95C165.737 93.8852 165.882 92.3727 166.045 90.6841C166.247 88.5861 166.476 86.2163 167.307 84C168.807 80 170.634 77 170.634 77C169.136 79.6314 168.606 82.7773 169.807 86.5C174.807 102 224.307 99 227.807 97.5C231.307 96 228.807 89.5 228.807 89.5C228.807 89.5 231.944 94 229.807 97C229.671 97.1906 229.512 97.4055 229.336 97.6436C229.191 97.8394 229.032 98.0508 228.86 98.2774C226.973 100.772 223.699 105.101 223.991 110.5H44.2335C35.5214 110.5 27.0475 107.656 20.0999 102.399L0.936829 87.9014Z" fill="#4C340F"/>
<path d="M11.845 103.211L0.936829 87.9014L20.0999 102.399C27.0475 107.656 35.5214 110.5 44.2335 110.5H223.991C224.148 113.397 225.331 116.603 228.307 120H44.4218C31.4871 120 19.3507 113.745 11.845 103.211Z" fill="#281E0E"/>
<defs>
<linearGradient id="paint0_linear_6_277" x1="377.289" y1="110.5" x2="376.842" y2="-121" gradientUnits="userSpaceOnUse">
<stop stop-opacity="0.44"/>
<stop offset="1" stop-color="#BBE939" stop-opacity="0"/>
</linearGradient>
</defs>
</svg>
