<svg width="426" height="391" viewBox="0 0 426 391" fill="none" xmlns="http://www.w3.org/2000/svg">
<path d="M175.389 146.712C182.266 143.096 190.483 143.096 197.36 146.712C202.256 149.286 207.628 150.573 213 150.573C218.372 150.573 223.744 149.286 228.639 146.712C235.516 143.096 243.733 143.096 250.61 146.712C260.401 151.86 272.098 151.86 281.889 146.712C288.766 143.096 296.983 143.096 303.86 146.712C313.651 151.86 325.348 151.86 335.139 146.712C342.016 143.096 350.233 143.096 357.11 146.712C366.901 151.86 378.598 151.86 388.389 146.712C395.266 143.096 403.483 143.096 410.36 146.712C415.256 149.286 420.628 150.573 426 150.573V140.573C422.226 140.573 418.453 139.669 415.014 137.861C405.223 132.713 393.526 132.713 383.735 137.861C376.858 141.477 368.641 141.477 361.764 137.861C351.973 132.713 340.276 132.713 330.485 137.861C323.608 141.477 315.391 141.477 308.514 137.861C298.723 132.713 287.026 132.713 277.235 137.861C270.358 141.477 262.141 141.477 255.264 137.861C245.473 132.713 233.776 132.713 223.985 137.861C220.547 139.669 216.773 140.573 213 140.573C209.226 140.573 205.453 139.669 202.014 137.861C192.223 132.713 180.526 132.713 170.735 137.861C163.858 141.477 155.641 141.477 148.764 137.861C138.973 132.713 127.276 132.713 117.485 137.861C110.608 141.477 102.391 141.477 95.5142 137.861C85.7234 132.713 74.026 132.713 64.2352 137.861C57.3579 141.477 49.1415 141.477 42.2642 137.861C32.4734 132.713 20.776 132.713 10.9852 137.861C7.54664 139.669 3.77333 140.573 0 140.573V150.573C5.37196 150.573 10.7439 149.286 15.6392 146.712C22.5165 143.096 30.7329 143.096 37.6102 146.712C47.401 151.86 59.0984 151.86 68.8892 146.712C75.7665 143.096 83.9829 143.096 90.8602 146.712C100.651 151.86 112.348 151.86 122.139 146.712C129.017 143.096 137.233 143.096 144.11 146.712C153.901 151.86 165.598 151.86 175.389 146.712Z" fill="#E8D424"/>
<path fill-rule="evenodd" clip-rule="evenodd" d="M0 140.573V150.573C5.37196 150.573 10.7439 149.286 15.6392 146.712C22.5165 143.096 30.7329 143.096 37.6102 146.712C47.401 151.86 59.0984 151.86 68.8892 146.712C75.7665 143.096 83.9829 143.096 90.8602 146.712C100.651 151.86 112.348 151.86 122.139 146.712C129.017 143.096 137.233 143.096 144.11 146.712C153.901 151.86 165.598 151.86 175.389 146.712C182.266 143.096 190.483 143.096 197.36 146.712C202.256 149.286 207.628 150.573 213 150.573C218.372 150.573 223.744 149.286 228.639 146.712C235.516 143.096 243.733 143.096 250.61 146.712C260.401 151.86 272.098 151.86 281.889 146.712C288.766 143.096 296.983 143.096 303.86 146.712C313.651 151.86 325.348 151.86 335.139 146.712C342.016 143.096 350.233 143.096 357.11 146.712C366.901 151.86 378.598 151.86 388.389 146.712C395.266 143.096 403.483 143.096 410.36 146.712C415.256 149.286 420.628 150.573 426 150.573V140.573C422.226 140.573 418.453 139.669 415.014 137.861C405.223 132.713 393.526 132.713 383.735 137.861C376.858 141.477 368.641 141.477 361.764 137.861C351.973 132.713 340.276 132.713 330.485 137.861C323.608 141.477 315.391 141.477 308.514 137.861C298.723 132.713 287.026 132.713 277.235 137.861C270.358 141.477 262.141 141.477 255.264 137.861C245.473 132.713 233.776 132.713 223.985 137.861C220.547 139.669 216.773 140.573 213 140.573C209.226 140.573 205.453 139.669 202.014 137.861C192.223 132.713 180.526 132.713 170.735 137.861C163.858 141.477 155.641 141.477 148.764 137.861C138.973 132.713 127.276 132.713 117.485 137.861C110.608 141.477 102.391 141.477 95.5142 137.861C85.7234 132.713 74.026 132.713 64.2352 137.861C57.3579 141.477 49.1415 141.477 42.2642 137.861C32.4734 132.713 20.776 132.713 10.9852 137.861C7.54664 139.669 3.77333 140.573 0 140.573Z" fill="#E8D424"/>
<path d="M40 391H386C408.091 391 426 373.091 426 351L426 150.573C420.628 150.573 415.256 149.286 410.36 146.712C403.483 143.096 395.266 143.096 388.389 146.712C378.598 151.86 366.901 151.86 357.11 146.712C350.233 143.096 342.016 143.096 335.139 146.712C325.348 151.86 313.651 151.86 303.86 146.712C296.983 143.096 288.766 143.096 281.889 146.712C272.098 151.86 260.401 151.86 250.61 146.712C243.733 143.096 235.516 143.096 228.639 146.712C223.744 149.286 218.372 150.573 213 150.573C207.628 150.573 202.256 149.286 197.36 146.712C190.483 143.096 182.266 143.096 175.389 146.712C165.598 151.86 153.901 151.86 144.11 146.712C137.233 143.096 129.017 143.096 122.139 146.712C112.348 151.86 100.651 151.86 90.8602 146.712C83.9829 143.096 75.7665 143.096 68.8892 146.712C59.0984 151.86 47.401 151.86 37.6102 146.712C30.7329 143.096 22.5165 143.096 15.6392 146.712C10.7439 149.286 5.37196 150.573 0 150.573V351C0 373.091 17.9086 391 40 391Z" fill="#182E1B"/>
<path d="M386 0H40C17.9086 0 0 17.9086 0 40V140.573C3.77333 140.573 7.54664 139.669 10.9852 137.861C20.776 132.713 32.4734 132.713 42.2642 137.861C49.1415 141.477 57.3579 141.477 64.2352 137.861C74.026 132.713 85.7234 132.713 95.5142 137.861C102.391 141.477 110.608 141.477 117.485 137.861C127.276 132.713 138.973 132.713 148.764 137.861C155.641 141.477 163.858 141.477 170.735 137.861C180.526 132.713 192.223 132.713 202.014 137.861C205.453 139.669 209.226 140.573 213 140.573C216.773 140.573 220.547 139.669 223.985 137.861C233.776 132.713 245.473 132.713 255.264 137.861C262.141 141.477 270.358 141.477 277.235 137.861C287.026 132.713 298.723 132.713 308.514 137.861C315.391 141.477 323.608 141.477 330.485 137.861C340.276 132.713 351.973 132.713 361.764 137.861C368.641 141.477 376.858 141.477 383.735 137.861C393.526 132.713 405.223 132.713 415.014 137.861C418.453 139.669 422.226 140.573 426 140.573L426 40C426 17.9086 408.091 0 386 0Z" fill="#357934"/>
</svg>
