<svg width="1072" height="631" viewBox="0 0 1072 631" fill="none" xmlns="http://www.w3.org/2000/svg">
<path d="M757.153 578.736L678.809 488.595C667.261 475.308 665.758 456.032 675.106 441.114L780.613 272.759C787.927 261.088 800.732 254.001 814.507 254.001H926.23C940.005 254.001 952.81 261.088 960.125 272.759L1065.63 441.115C1074.98 456.032 1073.48 475.308 1061.93 488.595L983.584 578.736C923.787 647.538 816.951 647.538 757.153 578.736Z" fill="url(#paint0_linear_56_10)" fill-opacity="0.75"/>
<path d="M88.1529 578.736L9.80948 488.595C-1.73896 475.307 -3.2424 456.031 6.10617 441.114L111.613 272.759C118.927 261.087 131.732 254 145.507 254H257.23C271.005 254 283.81 261.087 291.125 272.759L396.631 441.114C405.98 456.032 404.476 475.307 392.928 488.595L314.584 578.736C254.787 647.538 147.951 647.538 88.1529 578.736Z" fill="url(#paint1_linear_56_10)" fill-opacity="0.75"/>
<path d="M423.153 113.602L344.809 203.743C333.261 217.03 331.758 236.306 341.106 251.223L446.613 419.578C453.927 431.25 466.732 438.337 480.507 438.337H592.23C606.005 438.337 618.81 431.25 626.125 419.578L731.631 251.223C740.98 236.306 739.476 217.03 727.928 203.743L649.584 113.602C589.787 44.7995 482.951 44.7994 423.153 113.602Z" fill="url(#paint2_linear_56_10)" fill-opacity="0.75"/>
<path d="M757.153 162.399L678.809 72.2578C667.261 58.9703 665.758 39.6945 675.106 24.7771L690.634 0L1050.1 4.57764e-05L1065.63 24.7772C1074.98 39.6945 1073.48 58.9704 1061.93 72.2578L983.584 162.399C953.685 196.8 912.027 214.001 870.369 214.001C828.71 214.001 787.052 196.8 757.153 162.399Z" fill="url(#paint3_linear_56_10)" fill-opacity="0.75"/>
<path d="M88.1529 162.398L9.80947 72.2573C-1.73897 58.9698 -3.24242 39.694 6.10615 24.7766L21.6334 4.57764e-05L381.104 3.05176e-05L396.631 24.7767C405.98 39.694 404.476 58.9698 392.928 72.2573L314.584 162.398C284.685 196.799 243.027 214 201.369 214C159.71 214 118.052 196.799 88.1529 162.398Z" fill="url(#paint4_linear_56_10)" fill-opacity="0.75"/>
<defs>
<linearGradient id="paint0_linear_56_10" x1="535.869" y1="12.1032" x2="535.869" y2="774.195" gradientUnits="userSpaceOnUse">
<stop stop-color="#09230C"/>
<stop offset="1" stop-color="#263A12"/>
</linearGradient>
<linearGradient id="paint1_linear_56_10" x1="536.849" y1="12.1032" x2="536.849" y2="774.195" gradientUnits="userSpaceOnUse">
<stop stop-color="#09230C"/>
<stop offset="1" stop-color="#263A12"/>
</linearGradient>
<linearGradient id="paint2_linear_56_10" x1="535.869" y1="618.235" x2="535.869" y2="-143.858" gradientUnits="userSpaceOnUse">
<stop stop-color="#09230C"/>
<stop offset="1" stop-color="#263A12"/>
</linearGradient>
<linearGradient id="paint3_linear_56_10" x1="543.852" y1="-458.164" x2="543.852" y2="882.037" gradientUnits="userSpaceOnUse">
<stop stop-color="#09230C"/>
<stop offset="1" stop-color="#263A12"/>
</linearGradient>
<linearGradient id="paint4_linear_56_10" x1="207.369" y1="-165.548" x2="207.369" y2="289.452" gradientUnits="userSpaceOnUse">
<stop stop-color="#09230C"/>
<stop offset="1" stop-color="#263A12"/>
</linearGradient>
</defs>
</svg>
