<svg width="203" height="319" viewBox="0 0 203 319" fill="none" xmlns="http://www.w3.org/2000/svg">
<path d="M65 319H138C173.899 319 203 289.899 203 254V207C197.88 207 192.76 205.68 188.095 203.039C181.54 199.33 173.709 199.33 167.155 203.039C157.824 208.32 146.676 208.32 137.344 203.039C130.79 199.33 122.959 199.33 116.405 203.039C107.074 208.32 95.9256 208.32 86.5945 203.039C80.0401 199.33 72.2094 199.33 65.655 203.039C56.3238 208.32 45.1756 208.32 35.8445 203.039C29.2901 199.33 21.4594 199.33 14.905 203.039C10.2395 205.68 5.11975 207 0 207L1.7926e-06 254C1.7926e-06 289.899 29.1015 319 65 319Z" fill="#182E1B"/>
<path d="M167.155 203.039C173.709 199.33 181.54 199.33 188.095 203.039C192.76 205.68 197.88 207 203 207V196.743C199.404 196.743 195.807 195.815 192.53 193.961C183.199 188.68 172.051 188.68 162.72 193.961C156.165 197.67 148.334 197.67 141.78 193.961C132.449 188.68 121.301 188.68 111.97 193.961C105.415 197.67 97.5843 197.67 91.03 193.961C81.6988 188.68 70.5506 188.68 61.2195 193.961C54.6651 197.67 46.8344 197.67 40.28 193.961C30.9488 188.68 19.8006 188.68 10.4695 193.961C7.19235 195.815 3.59618 196.742 0 196.743V207C5.11975 207 10.2395 205.68 14.905 203.039C21.4594 199.33 29.2901 199.33 35.8445 203.039C45.1756 208.32 56.3238 208.32 65.655 203.039C72.2094 199.33 80.0401 199.33 86.5945 203.039C95.9256 208.32 107.074 208.32 116.405 203.039C122.959 199.33 130.79 199.33 137.344 203.039C146.676 208.32 157.824 208.32 167.155 203.039Z" fill="#E8D424"/>
<path d="M98.739 44C76.649 44 58.9988 56.8518 58.9988 73.5947C58.9988 73.5947 47.0117 74.0359 47.0117 77.1241C47.0117 78.5713 49.6442 79.3888 52.4419 80.2576C55.6142 81.2426 58.9988 82.2937 58.9988 84.4035C58.9989 88.3741 65.4387 91.2418 69.2114 91.2418H77.4269L76.7939 91.8443C74.1778 94.3341 75.94 98.7418 79.5515 98.7418H79.6991C80.7355 98.7418 81.7315 98.3395 82.4772 97.6196L89.084 91.2418H110.903L114.392 96.8539C115.122 98.0279 116.407 98.7418 117.789 98.7418H118.274C121.393 98.7418 123.312 95.3319 121.694 92.6662L120.829 91.2418H131.153C131.153 91.2418 142.28 91.2418 145.806 84.4035C147.178 81.7408 149.413 79.7007 151.525 77.7722C154.837 74.7481 157.848 71.9987 156.764 67.5537C156.313 65.707 156.049 64.0096 155.816 62.5072C155.128 58.0872 154.703 55.3552 150.562 55.477C150.109 55.4903 149.66 55.4978 149.217 55.5051C144.232 55.5875 140.049 55.6566 140.661 63.9627C140.759 65.2959 140.885 66.4123 140.992 67.3564C141.464 71.5357 141.554 72.3351 137.147 73.5947C137.147 60.1388 120.829 44 98.739 44Z" fill="#263A12"/>
<path fill-rule="evenodd" clip-rule="evenodd" d="M138 0H65C29.1015 0 1.7926e-06 29.1015 1.7926e-06 65L0 196.743C3.59618 196.742 7.19235 195.815 10.4695 193.961C19.8006 188.68 30.9488 188.68 40.28 193.961C46.8344 197.67 54.6651 197.67 61.2195 193.961C70.5506 188.68 81.6988 188.68 91.03 193.961C97.5843 197.67 105.415 197.67 111.97 193.961C121.301 188.68 132.449 188.68 141.78 193.961C148.334 197.67 156.165 197.67 162.72 193.961C172.051 188.68 183.199 188.68 192.53 193.961C195.807 195.815 199.404 196.743 203 196.743V65C203 29.1015 173.899 0 138 0ZM58.9988 73.5947C58.9988 56.8518 76.649 44 98.739 44C120.829 44 137.147 60.1388 137.147 73.5947C141.554 72.3351 141.464 71.5357 140.992 67.3564C140.885 66.4123 140.759 65.2959 140.661 63.9627C140.049 55.6566 144.232 55.5875 149.217 55.5051C149.66 55.4978 150.109 55.4903 150.562 55.477C154.703 55.3552 155.128 58.0872 155.816 62.5072C156.049 64.0096 156.313 65.707 156.764 67.5537C157.848 71.9987 154.837 74.7481 151.525 77.7722C149.413 79.7007 147.178 81.7408 145.806 84.4035C142.28 91.2418 131.153 91.2418 131.153 91.2418H120.829L121.694 92.6662C123.312 95.3319 121.393 98.7418 118.274 98.7418H117.789C116.407 98.7418 115.122 98.0279 114.392 96.8539L110.903 91.2418H89.084L82.4772 97.6196C81.7315 98.3395 80.7355 98.7418 79.6991 98.7418H79.5515C75.94 98.7418 74.1778 94.3341 76.7939 91.8443L77.4269 91.2418H69.2114C65.4387 91.2418 58.9989 88.3741 58.9988 84.4035C58.9988 82.2937 55.6142 81.2426 52.4419 80.2576C49.6442 79.3888 47.0117 78.5713 47.0117 77.1241C47.0117 74.0359 58.9988 73.5947 58.9988 73.5947Z" fill="#357934"/>
</svg>
