<svg width="320" height="18" viewBox="0 0 320 18" fill="none" xmlns="http://www.w3.org/2000/svg">
<path fill-rule="evenodd" clip-rule="evenodd" d="M215.166 13.1082C221.423 8.84809 229.619 8.84809 235.876 13.1082C245.456 19.6306 258.003 19.6306 267.583 13.1082C273.84 8.84809 282.036 8.84809 288.293 13.1082C297.873 19.6306 310.42 19.6306 320 13.1082L314.501 4.89176C308.244 9.15191 300.049 9.15191 293.792 4.89176C284.212 -1.63059 271.664 -1.63059 262.085 4.89176C255.827 9.15191 247.632 9.15191 241.375 4.89176C231.795 -1.63059 219.248 -1.63059 209.668 4.89176C203.41 9.15191 195.215 9.15191 188.958 4.89176C179.378 -1.63059 166.831 -1.63058 157.251 4.89176C150.993 9.15191 142.798 9.15191 136.541 4.89176C126.961 -1.63059 114.414 -1.63058 104.834 4.89176C98.5765 9.15191 90.3812 9.15191 84.1239 4.89176C74.544 -1.63059 61.9968 -1.63058 52.4169 4.89176C46.1596 9.15191 37.9643 9.15191 31.707 4.89176C22.1271 -1.63058 9.57992 -1.63059 8.32957e-06 4.89176L5.4986 13.1082C11.7558 8.84809 19.9512 8.84809 26.2084 13.1082C35.7884 19.6306 48.3356 19.6306 57.9155 13.1082C64.1727 8.84809 72.3681 8.84809 78.6253 13.1082C88.2053 19.6306 100.752 19.6306 110.332 13.1082C116.59 8.84809 124.785 8.84809 131.042 13.1082C140.622 19.6306 153.169 19.6306 162.749 13.1082C169.007 8.84809 177.202 8.84809 183.459 13.1082C193.039 19.6306 205.586 19.6306 215.166 13.1082Z" fill="#E8D424"/>
</svg>
